<?xml version="1.0" encoding="utf-8"?>
<!-- Generator: Adobe Illustrator 26.5.0, SVG Export Plug-In . SVG Version: 6.00 Build 0)  -->
<svg version="1.1" xmlns="http://www.w3.org/2000/svg" xmlns:xlink="http://www.w3.org/1999/xlink" x="0px" y="0px"
	 viewBox="0 0 135.25 26.75" style="enable-background:new 0 0 135.25 26.75;" xml:space="preserve">
<style type="text/css">
	.st0{opacity:0.3;fill:#E40F7E;}
	.st1{fill:none;stroke:#E40F7E;stroke-miterlimit:10;}
	.st2{fill:none;stroke:#E40F7E;stroke-miterlimit:10;stroke-dasharray:6.0191,6.0191;}
	.st3{fill:none;stroke:#E40F7E;stroke-miterlimit:10;stroke-dasharray:5.534,5.534;}
	.st4{fill:none;stroke:#E40F7E;stroke-miterlimit:10;stroke-dasharray:5.8696,5.8696;}
	.st5{fill:none;stroke:#E40F7E;stroke-miterlimit:10;stroke-dasharray:5.7899,5.7899;}
	.st6{fill:none;stroke:#E40F7E;stroke-miterlimit:10;stroke-dasharray:5.8748,5.8748;}
	.st7{fill:none;stroke:#E40F7E;stroke-miterlimit:10;stroke-dasharray:6,6;}
	.st8{fill:#E40F7E;}
	.st9{fill:none;stroke:#129AD7;stroke-width:0.6324;stroke-miterlimit:10;}
	.st10{fill:none;stroke:#129AD7;stroke-miterlimit:10;stroke-dasharray:6,6;}
	.st11{fill:#129AD7;}
	.st12{fill:none;stroke:#129AD7;stroke-miterlimit:10;}
	.st13{opacity:0.3;fill:#129AD7;}
	.st14{fill:none;stroke:#129AD7;stroke-linejoin:round;}
	.st15{fill:none;stroke:#E40F7E;stroke-linejoin:round;}
	.st16{fill:#489A45;}
	.st17{fill:#B1231C;}
	.st18{fill:#F08223;}
	.st19{fill:#FFD800;}
	.st20{fill:none;stroke:#E40F7E;stroke-linejoin:round;stroke-miterlimit:10;stroke-dasharray:6;}
	.st21{fill:none;stroke:#D8D8D8;stroke-width:0.9858;stroke-miterlimit:10;}
	.st22{fill:none;stroke:#D8D8D8;stroke-miterlimit:10;stroke-dasharray:6;}
	.st23{fill:none;stroke:#D8D8D8;stroke-miterlimit:10;stroke-dasharray:6,6;}
	.st24{fill:#D8D8D8;}
	.st25{fill:none;stroke:#E40F7E;stroke-linejoin:round;stroke-miterlimit:10;}
	.st26{fill:none;stroke:#E40F7E;stroke-miterlimit:10;stroke-dasharray:6;}
	.st27{fill:none;stroke:#129AD7;stroke-miterlimit:10;stroke-dasharray:6;}
	.st28{fill:none;stroke:#E40F7E;stroke-miterlimit:10;stroke-dasharray:6.0896;}
	.st29{fill:none;stroke:#E40F7E;stroke-miterlimit:10;stroke-dasharray:6.0896,6.0896;}
	.st30{fill:none;}
	.st31{fill:none;stroke:#D8D8D8;stroke-miterlimit:10;}
	.st32{fill:none;stroke:#D8D8D8;stroke-miterlimit:10;stroke-dasharray:2,2;}
	.st33{fill:none;stroke:#D8D8D8;stroke-width:1.0483;stroke-miterlimit:10;}
	.st34{fill:none;stroke:#E40F7E;stroke-width:0.6;stroke-linejoin:round;stroke-miterlimit:10;}
	.st35{fill:none;stroke:#D8D8D8;stroke-width:0.788;stroke-miterlimit:10;}
	.st36{fill:none;stroke:#D8D8D8;stroke-width:1.0604;stroke-miterlimit:10;}
	.st37{fill:#FFFFFF;}
	.st38{fill:#010202;}
	.st39{fill:none;stroke:#129AD7;stroke-width:2.5116;stroke-miterlimit:10;}
	.st40{fill:none;stroke:#129AD7;stroke-width:2;stroke-miterlimit:10;}
	.st41{fill:none;stroke:#129AD7;stroke-width:1.7216;stroke-miterlimit:10;}
	.st42{display:none;}
	.st43{fill:none;stroke:#129AD7;stroke-width:0.9858;stroke-miterlimit:10;}
	.st44{fill:none;stroke:#D8D8D8;stroke-width:1.0241;stroke-miterlimit:10;}
	.st45{fill:none;stroke:#129AD7;stroke-width:1.0241;stroke-miterlimit:10;}
	.st46{fill:none;stroke:#D8D8D8;stroke-width:1.9374;stroke-linejoin:round;stroke-miterlimit:10;}
	.st47{fill:#D8D8D8;stroke:#D8D8D8;stroke-width:0.1125;stroke-linejoin:round;stroke-miterlimit:10;}
	.st48{fill:none;stroke:#E40F7E;stroke-width:1.4171;stroke-miterlimit:10;}
	.st49{fill:none;stroke:#129AD7;stroke-width:0.5;stroke-linejoin:round;}
	.st50{fill:none;stroke:#E40F7E;stroke-width:0.5;stroke-linejoin:round;}
	.st51{fill:none;stroke:#D8D8D8;stroke-width:0.7931;stroke-miterlimit:10;}
	.st52{fill:none;stroke:#129AD7;stroke-width:0.8216;stroke-miterlimit:10;}
	.st53{fill:none;stroke:#129AD7;stroke-width:0.7789;stroke-miterlimit:10;}
	.st54{fill:none;stroke:#129AD7;stroke-width:1.0711;stroke-miterlimit:10;}
	.st55{fill:none;stroke:#D8D8D8;stroke-width:1.2654;stroke-linejoin:round;stroke-miterlimit:10;}
	.st56{fill:#D8D8D8;stroke:#D8D8D8;stroke-width:0.0735;stroke-linejoin:round;stroke-miterlimit:10;}
	.st57{fill:none;stroke:#129AD7;stroke-width:1.2654;stroke-linejoin:round;stroke-miterlimit:10;}
	.st58{fill:none;stroke:#D8D8D8;stroke-width:1.2638;stroke-linejoin:round;stroke-miterlimit:10;}
	.st59{fill:none;stroke:#129AD7;stroke-width:1.2638;stroke-linejoin:round;stroke-miterlimit:10;}
	.st60{fill:#D8D8D8;stroke:#8B8B8C;stroke-width:0.3805;stroke-miterlimit:10;}
	.st61{fill:#D8D8D8;stroke:#8B8B8C;stroke-width:0.3813;stroke-miterlimit:10;}
	.st62{fill:#D8D8D8;stroke:#8B8B8C;stroke-width:0.4014;stroke-miterlimit:10;}
	.st63{fill:none;stroke:#E40F7E;stroke-width:0.4014;stroke-miterlimit:10;}
	.st64{fill:#FFFFFF;stroke:#E40F7E;stroke-miterlimit:10;}
	.st65{fill:none;stroke:#E40F7E;stroke-width:0.2884;stroke-miterlimit:10;}
	.st66{fill:none;stroke:#E40F7E;stroke-width:0.4516;stroke-miterlimit:10;}
	.st67{fill:none;stroke:#E40F7E;stroke-width:0.8028;stroke-miterlimit:10;}
	.st68{fill:#FFFFFF;stroke:#E40F7E;stroke-width:0.8028;stroke-miterlimit:10;}
	.st69{fill:none;stroke:#E40F7E;stroke-width:2.5224;stroke-miterlimit:10;}
	.st70{fill:none;stroke:#D8D8D8;stroke-width:0.8028;stroke-miterlimit:10;stroke-dasharray:2.4085;}
	.st71{fill:none;stroke:#E40F7E;stroke-width:0.8028;stroke-miterlimit:10;stroke-dasharray:0.8028;}
	.st72{fill-rule:evenodd;clip-rule:evenodd;fill:#D8D8D8;}
	.st73{fill:#D8D8D8;stroke:#8B8B8C;stroke-width:0.5353;stroke-miterlimit:10;}
	.st74{fill:#D8D8D8;stroke:#8B8B8C;stroke-width:0.5364;stroke-miterlimit:10;}
	.st75{fill:#D8D8D8;stroke:#8B8B8C;stroke-width:0.5648;stroke-miterlimit:10;}
	.st76{fill:none;stroke:#E40F7E;stroke-width:0.5648;stroke-miterlimit:10;}
	.st77{fill:none;stroke:#E40F7E;stroke-width:0.4057;stroke-miterlimit:10;}
	.st78{fill:none;stroke:#E40F7E;stroke-width:0.6354;stroke-miterlimit:10;}
	.st79{fill:none;stroke:#E40F7E;stroke-width:1.1296;stroke-miterlimit:10;}
	.st80{fill:#FFFFFF;stroke:#E40F7E;stroke-width:1.1296;stroke-miterlimit:10;}
	.st81{fill:none;stroke:#E40F7E;stroke-width:3.5491;stroke-miterlimit:10;}
	.st82{fill:none;stroke:#D8D8D8;stroke-width:1.1296;stroke-miterlimit:10;stroke-dasharray:3.3888;}
	.st83{fill:none;stroke:#E40F7E;stroke-width:1.1296;stroke-miterlimit:10;stroke-dasharray:1.1296;}
</style>
<g id="Funktion">
</g>
<g id="Text">
	<g>
		<g>
			<path d="M24.45,14.86h-3.71v2h3.51v2.65h-3.51v2.07h3.71v2.65h-6.82V12.21h6.82V14.86z"/>
			<path class="st11" d="M26.07,18.19h4.56v2.39h-4.56V18.19z"/>
			<path d="M35.9,12.21v9.36h3.75v2.65h-6.86V12.21H35.9z"/>
			<path d="M47.2,16.17h2.88v8.05H47.2v-0.88c-0.67,0.92-1.71,1.15-2.5,1.15c-0.86,0-1.93-0.25-2.9-1.28
				c-0.77-0.83-1.15-1.75-1.15-2.95c0-1.51,0.59-2.58,1.24-3.22c0.68-0.68,1.75-1.13,2.9-1.13c1.3,0,2.07,0.67,2.41,1.04V16.17z
				 M44.18,18.87c-0.4,0.38-0.58,0.9-0.58,1.31c0,0.47,0.2,0.97,0.56,1.31c0.31,0.29,0.81,0.54,1.3,0.54c0.47,0,0.94-0.2,1.3-0.56
				c0.25-0.25,0.54-0.65,0.54-1.3c0-0.38-0.11-0.88-0.56-1.31c-0.27-0.25-0.68-0.52-1.3-0.52C45.08,18.35,44.59,18.48,44.18,18.87z"
				/>
			<path d="M61.17,24.22h-2.88v-0.88c-0.81,1.04-1.87,1.15-2.43,1.15c-1.15,0-2.07-0.38-2.83-1.12c-0.81-0.79-1.3-1.93-1.3-3.21
				c0-1.37,0.58-2.48,1.31-3.19c0.79-0.76,1.85-1.08,2.84-1.08c1.1,0,1.87,0.49,2.39,1.04v-5.85h2.88V24.22z M57.77,21.55
				c0.38-0.34,0.61-0.88,0.61-1.37c0-0.45-0.25-0.99-0.54-1.3c-0.32-0.34-0.77-0.54-1.31-0.54c-0.61,0-1.03,0.27-1.28,0.52
				c-0.32,0.32-0.56,0.83-0.56,1.37c0,0.41,0.18,0.88,0.56,1.26c0.4,0.4,0.86,0.54,1.28,0.54C57,22.04,57.46,21.82,57.77,21.55z"/>
			<path class="st11" d="M63.06,18.19h4.56v2.39h-4.56V18.19z"/>
			<path d="M80.6,22.71c-1.22,1.17-2.95,1.78-4.74,1.78c-1.78,0-3.51-0.61-4.74-1.78c-1.28-1.22-1.89-2.9-1.89-4.48
				c0-1.6,0.61-3.3,1.89-4.5c1.22-1.17,2.95-1.78,4.74-1.78c1.78,0,3.51,0.61,4.74,1.78c1.28,1.21,1.89,2.9,1.89,4.5
				C82.49,19.81,81.87,21.48,80.6,22.71z M73.43,15.92c-0.65,0.63-0.95,1.51-0.95,2.36c0,1.06,0.5,1.8,0.95,2.23
				c0.58,0.56,1.39,0.95,2.43,0.95c1.06,0,1.86-0.38,2.41-0.94c0.56-0.56,0.97-1.39,0.97-2.3c0-0.94-0.41-1.76-0.97-2.3
				c-0.67-0.63-1.58-0.95-2.41-0.95C75,14.96,74.08,15.27,73.43,15.92z"/>
			<path class="st11" d="M84.1,18.19h4.56v2.39H84.1V18.19z"/>
			<path d="M90.28,24.22l2.03-12.01h3.08l2.43,6.41l2.57-6.41h3.12l1.8,12.01h-3.12l-0.88-6.91l-2.9,6.91h-1.24L94.4,17.3
				l-1.03,6.91H90.28z"/>
			<path d="M113.24,16.17h2.88v8.05h-2.88v-0.88c-0.67,0.92-1.71,1.15-2.5,1.15c-0.86,0-1.93-0.25-2.9-1.28
				c-0.77-0.83-1.15-1.75-1.15-2.95c0-1.51,0.59-2.58,1.24-3.22c0.68-0.68,1.75-1.13,2.9-1.13c1.3,0,2.07,0.67,2.41,1.04V16.17z
				 M110.22,18.87c-0.4,0.38-0.58,0.9-0.58,1.31c0,0.47,0.2,0.97,0.56,1.31c0.31,0.29,0.81,0.54,1.3,0.54c0.47,0,0.94-0.2,1.3-0.56
				c0.25-0.25,0.54-0.65,0.54-1.3c0-0.38-0.11-0.88-0.56-1.31c-0.27-0.25-0.68-0.52-1.3-0.52
				C111.12,18.35,110.63,18.48,110.22,18.87z"/>
			<path d="M121.29,18.53v5.69h-2.88v-5.69h-0.92v-2.36h0.92v-2.65h2.88v2.65h1.64v2.36H121.29z"/>
		</g>
		<g>
			<path class="st11" d="M1.13,24.33c0-0.55,0.42-0.99,0.96-1.03V8.71c0-0.47,0.38-0.85,0.85-0.85h8.28c0.47,0,0.85,0.38,0.85,0.85
				V23.3C12.59,23.36,13,23.8,13,24.33c0,0.57-0.46,1.04-1.04,1.04h-9.8C1.59,25.37,1.13,24.9,1.13,24.33"/>
			<polygon class="st37" points="6.78,20.12 5.93,22.07 8.04,19.9 7.35,19.48 8.08,18.39 7.29,17.77 8.41,15.71 6.18,18.04 
				7.09,18.51 6.09,19.77 			"/>
			<path class="st37" d="M3.3,14.04c0,0.17,0.14,0.31,0.31,0.31h6.9c0.17,0,0.31-0.14,0.31-0.31V9.75c0-0.17-0.14-0.31-0.31-0.31
				h-6.9c-0.17,0-0.31,0.14-0.31,0.31V14.04z"/>
		</g>
		<g>
			<path class="st40" d="M126.21,17.04L126.21,17.04c2.69,0,4.86-2.18,4.86-4.86V8.04"/>
			<path class="st11" d="M133.74,2.79h-0.34V1.15c0-0.44-0.36-0.8-0.8-0.8c-0.36,0-0.66,0.24-0.76,0.57
				c-0.02,0.07-0.04,0.15-0.04,0.22v1.64h-1.52V1.15c0-0.08-0.02-0.15-0.04-0.22c-0.1-0.33-0.4-0.57-0.76-0.57
				c-0.44,0-0.8,0.36-0.8,0.8v1.64h-0.34c-0.44,0-0.8,0.36-0.8,0.8v1.13c0,1.65,1.15,3.04,2.7,3.4v0.1c0,0.08-0.01,0.16-0.01,0.24
				c0.56,0.03,1.09,0.07,1.58,0.21c0.01-0.15,0.02-0.3,0.02-0.45v-0.1c1.54-0.36,2.7-1.75,2.7-3.4V3.59
				C134.54,3.15,134.18,2.79,133.74,2.79z"/>
		</g>
	</g>
</g>
<g id="Nummern" class="st42">
</g>
<g id="Punkte">
</g>
</svg>
