<?xml version="1.0" encoding="UTF-8"?>
<svg id="Punkte" xmlns="http://www.w3.org/2000/svg" viewBox="0 0 463 366.25">
  <defs>
    <style>
      .cls-1, .cls-2, .cls-3, .cls-4, .cls-5, .cls-6, .cls-7, .cls-8, .cls-9, .cls-10, .cls-11 {
        stroke-miterlimit: 10;
      }

      .cls-1, .cls-2, .cls-3, .cls-4, .cls-5, .cls-7, .cls-11 {
        stroke: #e40f7e;
      }

      .cls-1, .cls-3, .cls-5, .cls-6, .cls-7, .cls-11 {
        fill: none;
      }

      .cls-1, .cls-9 {
        stroke-width: .565px;
      }

      .cls-2, .cls-12, .cls-4 {
        fill: #fff;
      }

      .cls-2, .cls-6, .cls-7 {
        stroke-width: 1.13px;
      }

      .cls-13, .cls-14, .cls-8, .cls-9, .cls-10 {
        fill: #d8d8d8;
      }

      .cls-15 {
        fill: #e40f7e;
      }

      .cls-3 {
        stroke-width: .635px;
      }

      .cls-5 {
        stroke-width: .406px;
      }

      .cls-6 {
        stroke: #d8d8d8;
        stroke-dasharray: 0 3.389;
      }

      .cls-14 {
        fill-rule: evenodd;
      }

      .cls-8 {
        stroke-width: .535px;
      }

      .cls-8, .cls-9, .cls-10 {
        stroke: #8b8b8c;
      }

      .cls-10 {
        stroke-width: .536px;
      }

      .cls-11 {
        stroke-width: 3.549px;
      }
    </style>
  </defs>
  <path class="cls-13" d="M35.676,279.346h112.853c6.03,0,10.926,4.896,10.926,10.926v6.724H24.75v-6.724c0-6.03,4.896-10.926,10.926-10.926Z"/>
  <path class="cls-13" d="M41.274,271.58h114.93c6.08,0,11.017,4.937,11.017,11.017v6.633H30.257v-6.633c0-6.08,4.937-11.017,11.017-11.017Z"/>
  <polygon class="cls-13" points="159.455 296.996 167.221 289.23 159.878 282.594 154.654 294.596 159.455 296.996"/>
  <polygon class="cls-13" points="26.303 284.994 32.375 276.099 39.152 276.663 31.245 289.089 26.303 284.994"/>
  <path class="cls-8" d="M48.33,274.404V52.178c0-4.457,3.246-8.071,7.251-8.071h90.409c4.005,0,7.251,3.614,7.251,8.071v222.226l-6.495,5.224"/>
  <path class="cls-10" d="M49.077,49.331h90.004c4.231,0,7.666,3.435,7.666,7.666v222.632H41.412V56.997c0-4.231,3.435-7.666,7.666-7.666Z"/>
  <line class="cls-8" x1="147.026" y1="57.402" x2="153.242" y2="52.178"/>
  <line class="cls-8" x1="139.775" y1="49.331" x2="145.991" y2="44.107"/>
  <line class="cls-9" x1="45.506" y1="50.179" x2="52.425" y2="44.954"/>
  <line class="cls-8" x1="147.153" y1="94.374" x2="153.242" y2="87.879"/>
  <line class="cls-8" x1="147.153" y1="105.811" x2="153.242" y2="99.316"/>
  <path class="cls-15" d="M92.748,97.904h-7.122c-.313,0-.508-.339-.352-.609l3.561-6.168,3.561-6.168c.156-.271,.547-.271,.704,0l3.561,6.168,3.561,6.168c.156,.271-.039,.609-.352,.609h-7.122Z"/>
  <path class="cls-1" d="M87.302,90.235c-.362-.756-.565-1.603-.565-2.497,0-3.197,2.592-5.789,5.789-5.789s5.789,2.592,5.789,5.789c0,.894-.203,1.741-.565,2.497"/>
  <path class="cls-1" d="M85.183,92.243c-.806-1.311-1.271-2.854-1.271-4.505,0-4.757,3.856-8.613,8.613-8.613s8.613,3.856,8.613,8.613c0,1.657-.468,3.205-1.279,4.518"/>
  <path class="cls-1" d="M83.167,93.809c-1.136-1.747-1.796-3.832-1.796-6.072,0-6.161,4.994-11.155,11.155-11.155s11.155,4.994,11.155,11.155c0,2.356-.73,4.541-1.977,6.342"/>
  <rect class="cls-4" x="68.098" y="108.212" width="49.844" height="17.65" rx="1.249" ry="1.249"/>
  <rect class="cls-5" x="84.195" y="130.521" width="6.601" height="8.048" rx=".508" ry=".508"/>
  <rect class="cls-3" x="93.232" y="130.663" width="10.166" height="7.625" rx=".613" ry=".613"/>
  <rect class="cls-15" x="84.824" y="131.853" width="1.496" height="1.122" rx=".236" ry=".236"/>
  <rect class="cls-15" x="86.695" y="131.853" width="1.496" height="1.122" rx=".236" ry=".236"/>
  <rect class="cls-15" x="88.565" y="131.853" width="1.496" height="1.122" rx=".236" ry=".236"/>
  <rect class="cls-15" x="84.824" y="133.349" width="1.496" height="1.122" rx=".236" ry=".236"/>
  <rect class="cls-15" x="86.695" y="133.349" width="1.496" height="1.122" rx=".236" ry=".236"/>
  <rect class="cls-15" x="88.565" y="133.349" width="1.496" height="1.122" rx=".236" ry=".236"/>
  <rect class="cls-15" x="84.824" y="134.845" width="1.496" height="1.122" rx=".236" ry=".236"/>
  <rect class="cls-15" x="86.695" y="134.845" width="1.496" height="1.122" rx=".236" ry=".236"/>
  <rect class="cls-15" x="86.695" y="136.342" width="1.496" height="1.122" rx=".236" ry=".236"/>
  <rect class="cls-15" x="88.565" y="134.845" width="1.496" height="1.122" rx=".236" ry=".236"/>
  <rect class="cls-15" x="94.261" y="131.616" width="7.867" height="3.933"/>
  <rect class="cls-15" x="94.261" y="136.111" width="7.867" height="1.124"/>
  <g>
    <path class="cls-15" d="M77.144,160.855c2.182,1.561,3.598,4.074,3.598,6.909,0,4.735-3.95,8.573-8.823,8.573s-8.823-3.838-8.823-8.573c0-2.835,1.416-5.348,3.598-6.909"/>
    <circle class="cls-12" cx="69.389" cy="163.663" r="1.476"/>
    <circle class="cls-12" cx="71.919" cy="167.458" r="2.319"/>
    <circle class="cls-12" cx="66.647" cy="167.458" r="2.319"/>
    <circle class="cls-12" cx="68.967" cy="172.519" r="2.319"/>
    <circle class="cls-12" cx="74.66" cy="172.519" r="2.319"/>
    <circle class="cls-12" cx="77.19" cy="167.458" r="2.319"/>
    <circle class="cls-12" cx="74.871" cy="163.873" r="1.476"/>
  </g>
  <g>
    <path class="cls-15" d="M122.756,161.354c2.182,1.561,3.598,4.074,3.598,6.909,0,4.735-3.95,8.573-8.823,8.573s-8.823-3.838-8.823-8.573c0-2.835,1.416-5.348,3.598-6.909"/>
    <circle class="cls-12" cx="115.001" cy="164.162" r="1.476"/>
    <circle class="cls-12" cx="117.531" cy="167.957" r="2.319"/>
    <circle class="cls-12" cx="112.26" cy="167.957" r="2.319"/>
    <circle class="cls-12" cx="114.579" cy="173.018" r="2.319"/>
    <circle class="cls-12" cx="120.272" cy="173.018" r="2.319"/>
    <circle class="cls-12" cx="122.802" cy="167.957" r="2.319"/>
    <circle class="cls-12" cx="120.483" cy="164.373" r="1.476"/>
  </g>
  <rect class="cls-7" x="57.226" y="242.917" width="73.706" height="29.228" rx="1.71" ry="1.71"/>
  <rect class="cls-2" x="62.592" y="248.141" width="11.578" height="20.05" rx="1.507" ry="1.507"/>
  <circle class="cls-7" cx="68.522" cy="253.789" r="3.106"/>
  <rect class="cls-7" x="64.992" y="259.578" width="6.778" height=".565"/>
  <rect class="cls-7" x="64.992" y="262.402" width="6.778" height=".565"/>
  <rect class="cls-2" x="82.36" y="248.423" width="41.513" height="19.062"/>
  <g>
    <path class="cls-11" d="M59.203,292.239v-55.244c0-11.001,8.841-19.918,19.746-19.918h26.589c10.906,0,19.746,8.918,19.746,19.918v55.244"/>
    <polygon class="cls-15" points="69.761 308.151 59.145 290.326 48.526 308.151 69.761 308.151"/>
    <polygon class="cls-15" points="114.726 308.151 125.343 290.326 135.961 308.151 114.726 308.151"/>
  </g>
  <line class="cls-1" x1="113.141" y1="89.291" x2="188.26" y2="89.291"/>
  <line class="cls-1" x1="126.132" y1="117.531" x2="188.683" y2="117.531"/>
  <line class="cls-1" x1="109.329" y1="134.193" x2="189.248" y2="134.193"/>
  <line class="cls-1" x1="131.78" y1="169.069" x2="186.848" y2="169.069"/>
  <line class="cls-1" x1="135.168" y1="256.189" x2="183.6" y2="256.189"/>
  <line class="cls-1" x1="125.143" y1="219.76" x2="184.871" y2="219.76"/>
  <g>
    <path class="cls-15" d="M166.78,87.452l.949-4.857,1.572,3.509,1.585-3.509,.854,4.857h-.705l-.461-2.724-1.314,2.934-1.301-2.94-.474,2.73h-.705Z"/>
    <path class="cls-15" d="M175.467,86.029c0,.874-.663,1.511-1.524,1.511s-1.524-.637-1.524-1.511c0-.881,.664-1.504,1.524-1.504s1.524,.623,1.524,1.504Zm-.677,.007c0-.65-.427-.915-.847-.915s-.847,.265-.847,.915c0,.549,.325,.908,.847,.908s.847-.359,.847-.908Z"/>
    <path class="cls-15" d="M176.824,84.932c.271-.352,.637-.406,.847-.406,.752,0,1.389,.569,1.389,1.497,0,.786-.501,1.518-1.382,1.518-.203,0-.562-.047-.854-.386v.298h-.665v-4.938h.665v2.418Zm-.041,1.111c0,.596,.387,.901,.807,.901,.48,0,.793-.413,.793-.908,0-.508-.312-.915-.793-.915-.42,0-.807,.299-.807,.922Z"/>
    <path class="cls-15" d="M180.084,82.994c.244,0,.427,.183,.427,.427s-.183,.427-.427,.427-.427-.183-.427-.427,.183-.427,.427-.427Zm.332,1.605v2.853h-.664v-2.853h.664Z"/>
    <path class="cls-15" d="M181.921,82.514v4.938h-.664v-4.938h.664Z"/>
    <path class="cls-15" d="M183.493,85.21v2.242h-.663v-2.242h-.285v-.61h.285v-.989c0-.44,.114-.718,.277-.894,.122-.129,.332-.278,.678-.278,.142,0,.284,.021,.427,.081v.657c-.136-.081-.224-.102-.318-.102-.082,0-.203,.014-.292,.108-.033,.034-.108,.136-.108,.339v1.077h.719v.61h-.719Z"/>
    <path class="cls-15" d="M185.256,84.6v1.633c0,.17,.007,.366,.122,.516,.088,.114,.244,.196,.434,.196s.346-.082,.434-.196c.115-.149,.122-.346,.122-.516v-1.633h.664v1.653c0,.366-.041,.671-.306,.935-.257,.258-.609,.353-.928,.353-.291,0-.644-.088-.901-.353-.264-.264-.305-.568-.305-.935v-1.653h.664Z"/>
    <path class="cls-15" d="M187.865,84.6h.664v.265c.284-.318,.609-.339,.772-.339,.528,0,.752,.265,.84,.386,.108,.156,.177,.353,.177,.793v1.748h-.664v-1.585c0-.726-.271-.746-.521-.746-.299,0-.604,.041-.604,.963v1.368h-.664v-2.853Z"/>
    <path class="cls-15" d="M191.823,82.514v3.041l.928-.955h.881l-1.226,1.186,1.314,1.667h-.841l-.935-1.22-.122,.122v1.098h-.664v-4.938h.664Z"/>
    <path class="cls-15" d="M194.839,85.21v2.242h-.664v-2.242h-.278v-.61h.278v-1.043h.664v1.043h.508v.61h-.508Z"/>
    <path class="cls-15" d="M197.359,87.452l.949-4.857,1.571,3.509,1.585-3.509,.854,4.857h-.704l-.461-2.724-1.314,2.934-1.301-2.94-.474,2.73h-.705Z"/>
    <path class="cls-15" d="M206.047,86.029c0,.874-.664,1.511-1.524,1.511s-1.524-.637-1.524-1.511c0-.881,.664-1.504,1.524-1.504s1.524,.623,1.524,1.504Zm-.677,.007c0-.65-.427-.915-.848-.915s-.847,.265-.847,.915c0,.549,.325,.908,.847,.908s.848-.359,.848-.908Z"/>
    <path class="cls-15" d="M208.826,82.514h.664v4.938h-.664v-.298c-.291,.339-.65,.386-.854,.386-.881,0-1.383-.731-1.383-1.518,0-.928,.638-1.497,1.39-1.497,.21,0,.575,.055,.847,.406v-2.418Zm-1.559,3.522c0,.495,.312,.908,.793,.908,.42,0,.807-.306,.807-.901,0-.623-.387-.922-.807-.922-.481,0-.793,.407-.793,.915Z"/>
    <path class="cls-15" d="M210.995,84.6v1.633c0,.17,.007,.366,.122,.516,.088,.114,.244,.196,.434,.196s.346-.082,.434-.196c.115-.149,.122-.346,.122-.516v-1.633h.664v1.653c0,.366-.041,.671-.306,.935-.257,.258-.609,.353-.928,.353-.291,0-.644-.088-.901-.353-.264-.264-.305-.568-.305-.935v-1.653h.664Z"/>
    <path class="cls-15" d="M214.275,82.514v4.938h-.664v-4.938h.664Z"/>
  </g>
  <g>
    <path class="cls-15" d="M168.428,111.174c.63,0,1.179,.067,1.681,.44,.548,.413,.867,1.07,.867,1.822s-.312,1.402-.908,1.822c-.528,.373-1.023,.434-1.653,.434h-.935v-4.519h.948Zm-.257,3.868h.298c.339,0,.806-.027,1.199-.318,.312-.237,.616-.671,.616-1.287,0-.597-.284-1.063-.609-1.301-.393-.285-.874-.312-1.206-.312h-.298v3.218Z"/>
    <path class="cls-15" d="M172.055,111.234c.244,0,.427,.183,.427,.427s-.183,.427-.427,.427-.427-.183-.427-.427,.183-.427,.427-.427Zm.332,1.605v2.853h-.664v-2.853h.664Z"/>
    <path class="cls-15" d="M174.474,113.592c-.068-.108-.197-.243-.407-.243-.095,0-.163,.033-.204,.074-.034,.034-.061,.088-.061,.149,0,.074,.034,.121,.095,.162,.041,.027,.081,.041,.224,.115l.339,.169c.148,.075,.291,.149,.399,.265,.156,.156,.21,.332,.21,.528,0,.258-.095,.481-.251,.65-.224,.244-.501,.318-.799,.318-.183,0-.414-.027-.617-.183-.163-.122-.298-.318-.366-.521l.542-.258c.034,.095,.095,.217,.156,.271,.041,.04,.135,.108,.292,.108,.102,0,.21-.034,.271-.096,.055-.054,.095-.142,.095-.224,0-.081-.026-.148-.088-.217-.081-.081-.176-.128-.284-.176l-.244-.115c-.129-.061-.285-.136-.393-.244-.149-.142-.203-.298-.203-.48,0-.23,.088-.454,.237-.609,.128-.136,.345-.271,.698-.271,.203,0,.366,.041,.528,.149,.095,.061,.224,.169,.325,.352l-.494,.325Z"/>
    <path class="cls-15" d="M176.331,117.244h-.664v-4.404h.664v.312c.245-.291,.563-.386,.847-.386,.752,0,1.389,.576,1.389,1.483,0,.962-.704,1.531-1.382,1.531-.155,0-.556-.054-.854-.42v1.884Zm-.041-2.961c0,.596,.387,.901,.807,.901,.481,0,.793-.413,.793-.908,0-.508-.312-.915-.793-.915-.42,0-.807,.299-.807,.922Z"/>
    <path class="cls-15" d="M179.923,110.754v4.938h-.664v-4.938h.664Z"/>
    <path class="cls-15" d="M182.851,112.84h.664v2.853h-.664v-.298c-.291,.339-.65,.386-.854,.386-.881,0-1.382-.731-1.382-1.518,0-.928,.637-1.497,1.389-1.497,.21,0,.575,.055,.847,.406v-.332Zm-1.559,1.437c0,.495,.312,.908,.793,.908,.42,0,.806-.306,.806-.901,0-.623-.386-.922-.806-.922-.481,0-.793,.407-.793,.915Z"/>
    <path class="cls-15" d="M185.195,115.245l-1.219-2.405h.799l.813,1.667,.826-1.667h.745l-2.27,4.404h-.745l1.05-1.999Z"/>
  </g>
  <g>
    <path class="cls-15" d="M167.606,129.354l1.748-1.802h.908l-2.039,2.046,2.053,2.473h-.921l-1.612-2.005-.136,.135v1.87h-.691v-4.519h.691v1.802Z"/>
    <path class="cls-15" d="M172.574,129.219h.664v2.853h-.664v-.298c-.292,.339-.65,.386-.854,.386-.88,0-1.382-.731-1.382-1.518,0-.928,.637-1.497,1.389-1.497,.21,0,.576,.055,.847,.406v-.332Zm-1.558,1.437c0,.495,.312,.908,.792,.908,.42,0,.806-.306,.806-.901,0-.623-.386-.922-.806-.922-.481,0-.792,.407-.792,.915Z"/>
    <path class="cls-15" d="M174.08,129.219h.664v.258c.074-.088,.183-.183,.277-.237,.129-.074,.258-.095,.407-.095,.162,0,.339,.027,.521,.136l-.271,.603c-.148-.095-.271-.102-.339-.102-.142,0-.284,.021-.413,.156-.183,.196-.183,.467-.183,.657v1.477h-.664v-2.853Z"/>
    <path class="cls-15" d="M177.15,129.829v2.242h-.665v-2.242h-.277v-.61h.277v-1.043h.665v1.043h.508v.61h-.508Z"/>
    <path class="cls-15" d="M180.66,131.421c-.122,.217-.299,.406-.481,.521-.23,.149-.535,.217-.84,.217-.38,0-.691-.095-.962-.365s-.42-.664-.42-1.091c0-.44,.155-.867,.453-1.173,.237-.236,.549-.386,.955-.386,.454,0,.746,.196,.915,.373,.366,.379,.399,.907,.399,1.205v.082h-2.046c.014,.203,.102,.434,.244,.575,.156,.156,.346,.184,.508,.184,.184,0,.318-.041,.454-.143,.115-.088,.203-.203,.265-.312l.556,.312Zm-.657-1.158c-.027-.156-.102-.292-.204-.387-.088-.081-.229-.162-.446-.162-.23,0-.38,.095-.468,.183-.095,.088-.17,.224-.203,.366h1.321Z"/>
    <path class="cls-15" d="M181.365,129.219h.664v.265c.284-.318,.609-.339,.772-.339,.528,0,.752,.265,.84,.386,.108,.156,.177,.353,.177,.793v1.748h-.664v-1.585c0-.726-.271-.746-.521-.746-.299,0-.604,.041-.604,.963v1.368h-.664v-2.853Z"/>
    <path class="cls-15" d="M185.323,127.133v4.938h-.664v-4.938h.664Z"/>
    <path class="cls-15" d="M188.719,131.421c-.122,.217-.299,.406-.481,.521-.23,.149-.535,.217-.84,.217-.38,0-.691-.095-.962-.365s-.42-.664-.42-1.091c0-.44,.155-.867,.453-1.173,.237-.236,.549-.386,.955-.386,.454,0,.746,.196,.915,.373,.366,.379,.399,.907,.399,1.205v.082h-2.046c.014,.203,.102,.434,.244,.575,.156,.156,.346,.184,.508,.184,.184,0,.318-.041,.454-.143,.115-.088,.203-.203,.265-.312l.556,.312Zm-.657-1.158c-.027-.156-.102-.292-.204-.387-.088-.081-.229-.162-.446-.162-.23,0-.38,.095-.468,.183-.095,.088-.17,.224-.203,.366h1.321Z"/>
    <path class="cls-15" d="M190.678,129.971c-.068-.108-.197-.243-.407-.243-.095,0-.162,.033-.203,.074-.033,.034-.061,.088-.061,.149,0,.074,.034,.121,.095,.162,.041,.027,.081,.041,.224,.115l.339,.169c.148,.075,.291,.149,.399,.265,.156,.156,.21,.332,.21,.528,0,.258-.095,.481-.251,.65-.224,.244-.501,.318-.799,.318-.183,0-.413-.027-.616-.183-.163-.122-.299-.318-.366-.521l.542-.258c.034,.095,.095,.217,.155,.271,.041,.04,.136,.108,.292,.108,.102,0,.21-.034,.271-.096,.055-.054,.095-.142,.095-.224,0-.081-.026-.148-.088-.217-.081-.081-.176-.128-.284-.176l-.244-.115c-.129-.061-.284-.136-.393-.244-.149-.142-.203-.298-.203-.48,0-.23,.088-.454,.236-.609,.129-.136,.346-.271,.698-.271,.203,0,.366,.041,.528,.149,.095,.061,.224,.169,.325,.352l-.494,.325Z"/>
    <path class="cls-15" d="M194.425,131.421c-.122,.217-.299,.406-.481,.521-.23,.149-.535,.217-.84,.217-.38,0-.691-.095-.962-.365s-.421-.664-.421-1.091c0-.44,.156-.867,.454-1.173,.237-.236,.549-.386,.956-.386,.453,0,.745,.196,.914,.373,.366,.379,.399,.907,.399,1.205v.082h-2.046c.014,.203,.102,.434,.244,.575,.156,.156,.346,.184,.508,.184,.184,0,.318-.041,.454-.143,.115-.088,.203-.203,.265-.312l.556,.312Zm-.657-1.158c-.027-.156-.102-.292-.203-.387-.089-.081-.23-.162-.447-.162-.23,0-.38,.095-.468,.183-.095,.088-.169,.224-.203,.366h1.321Z"/>
    <path class="cls-15" d="M195.137,129.219h.664v.258c.074-.088,.183-.183,.277-.237,.129-.074,.258-.095,.407-.095,.162,0,.339,.027,.521,.136l-.271,.603c-.148-.095-.271-.102-.339-.102-.142,0-.284,.021-.413,.156-.183,.196-.183,.467-.183,.657v1.477h-.664v-2.853Z"/>
  </g>
  <g>
    <path class="cls-15" d="M167.606,162.57v3.868h1.328v.65h-2.019v-4.519h.691Z"/>
    <path class="cls-15" d="M171.551,164.236h.664v2.853h-.664v-.298c-.292,.339-.65,.386-.854,.386-.88,0-1.382-.731-1.382-1.518,0-.928,.637-1.497,1.389-1.497,.21,0,.576,.055,.847,.406v-.332Zm-1.558,1.437c0,.495,.312,.908,.792,.908,.42,0,.806-.306,.806-.901,0-.623-.386-.922-.806-.922-.481,0-.792,.407-.792,.915Z"/>
    <path class="cls-15" d="M175.143,162.15h.664v4.938h-.664v-.298c-.291,.339-.65,.386-.854,.386-.881,0-1.382-.731-1.382-1.518,0-.928,.637-1.497,1.389-1.497,.21,0,.575,.055,.847,.406v-2.418Zm-1.559,3.522c0,.495,.312,.908,.793,.908,.42,0,.806-.306,.806-.901,0-.623-.386-.922-.806-.922-.481,0-.793,.407-.793,.915Z"/>
    <path class="cls-15" d="M179.203,166.438c-.122,.217-.299,.406-.481,.521-.23,.149-.535,.217-.84,.217-.38,0-.691-.095-.962-.365s-.42-.664-.42-1.091c0-.44,.156-.867,.454-1.173,.237-.236,.549-.386,.955-.386,.454,0,.746,.196,.915,.373,.366,.379,.399,.907,.399,1.205v.082h-2.046c.014,.203,.102,.434,.244,.575,.156,.156,.346,.184,.508,.184,.184,0,.318-.041,.454-.143,.115-.088,.203-.203,.265-.312l.556,.312Zm-.657-1.158c-.027-.156-.102-.292-.204-.387-.088-.081-.229-.162-.446-.162-.23,0-.38,.095-.468,.183-.095,.088-.17,.224-.203,.366h1.321Z"/>
    <path class="cls-15" d="M180.579,168.641h-.664v-4.404h.664v.312c.244-.291,.562-.386,.847-.386,.752,0,1.389,.576,1.389,1.483,0,.962-.704,1.531-1.382,1.531-.155,0-.556-.054-.854-.42v1.884Zm-.041-2.961c0,.596,.387,.901,.807,.901,.481,0,.793-.413,.793-.908,0-.508-.312-.915-.793-.915-.42,0-.807,.299-.807,.922Z"/>
    <path class="cls-15" d="M184.171,164.236v1.633c0,.17,.007,.366,.122,.516,.088,.114,.244,.196,.434,.196s.346-.082,.434-.196c.115-.149,.122-.346,.122-.516v-1.633h.664v1.653c0,.366-.041,.671-.306,.935-.257,.258-.609,.353-.928,.353-.291,0-.644-.088-.901-.353-.264-.264-.305-.568-.305-.935v-1.653h.664Z"/>
    <path class="cls-15" d="M186.78,164.236h.664v.265c.284-.318,.609-.339,.772-.339,.528,0,.752,.265,.84,.386,.108,.156,.177,.353,.177,.793v1.748h-.664v-1.585c0-.726-.271-.746-.522-.746-.298,0-.603,.041-.603,.963v1.368h-.664v-2.853Z"/>
    <path class="cls-15" d="M190.738,162.15v3.041l.928-.955h.881l-1.226,1.186,1.313,1.667h-.84l-.935-1.22-.122,.122v1.098h-.664v-4.938h.664Z"/>
    <path class="cls-15" d="M193.755,164.847v2.242h-.664v-2.242h-.278v-.61h.278v-1.043h.664v1.043h.508v.61h-.508Z"/>
  </g>
  <g>
    <path class="cls-15" d="M167.722,213.119c.549,0,.901,.067,1.192,.264,.495,.332,.535,.867,.535,1.063,0,.65-.399,1.125-1.002,1.261l1.409,1.931h-.833l-1.294-1.85h-.122v1.85h-.691v-4.519h.806Zm-.115,2.073h.217c.19,0,.962-.021,.962-.739,0-.637-.603-.697-.942-.697h-.237v1.437Z"/>
    <path class="cls-15" d="M172.5,214.785h.664v2.853h-.664v-.298c-.292,.339-.65,.386-.854,.386-.881,0-1.382-.731-1.382-1.518,0-.928,.637-1.497,1.389-1.497,.21,0,.576,.055,.847,.406v-.332Zm-1.559,1.437c0,.495,.312,.908,.793,.908,.42,0,.806-.306,.806-.901,0-.623-.386-.922-.806-.922-.481,0-.793,.407-.793,.915Z"/>
    <path class="cls-15" d="M174.005,214.785h.665v.265c.223-.271,.487-.339,.704-.339,.298,0,.576,.143,.738,.42,.237-.339,.597-.42,.847-.42,.346,0,.65,.162,.813,.447,.054,.095,.149,.305,.149,.718v1.762h-.664v-1.571c0-.319-.034-.447-.062-.509-.04-.108-.142-.251-.379-.251-.163,0-.306,.089-.394,.211-.115,.162-.129,.406-.129,.65v1.47h-.663v-1.571c0-.319-.034-.447-.062-.509-.04-.108-.143-.251-.379-.251-.163,0-.305,.089-.394,.211-.115,.162-.128,.406-.128,.65v1.47h-.665v-2.853Z"/>
    <path class="cls-15" d="M178.764,214.785h.664v.265c.224-.271,.488-.339,.705-.339,.298,0,.575,.143,.738,.42,.236-.339,.596-.42,.847-.42,.346,0,.65,.162,.812,.447,.055,.095,.149,.305,.149,.718v1.762h-.664v-1.571c0-.319-.034-.447-.061-.509-.041-.108-.143-.251-.38-.251-.162,0-.305,.089-.393,.211-.115,.162-.129,.406-.129,.65v1.47h-.664v-1.571c0-.319-.034-.447-.061-.509-.041-.108-.143-.251-.38-.251-.162,0-.305,.089-.393,.211-.115,.162-.129,.406-.129,.65v1.47h-.664v-2.853Z"/>
    <path class="cls-15" d="M184.769,215.537c-.068-.108-.197-.243-.407-.243-.095,0-.162,.033-.203,.074-.033,.034-.061,.088-.061,.149,0,.074,.033,.121,.095,.162,.041,.027,.081,.041,.224,.115l.339,.169c.148,.075,.291,.149,.399,.265,.156,.156,.21,.332,.21,.528,0,.258-.095,.481-.251,.65-.223,.244-.501,.318-.799,.318-.184,0-.413-.027-.617-.183-.162-.122-.298-.318-.365-.521l.542-.258c.034,.095,.095,.217,.155,.271,.041,.04,.136,.108,.292,.108,.102,0,.21-.034,.271-.096,.055-.054,.095-.142,.095-.224,0-.081-.026-.148-.088-.217-.081-.081-.176-.128-.284-.176l-.244-.115c-.129-.061-.284-.136-.393-.244-.149-.142-.203-.298-.203-.48,0-.23,.088-.454,.236-.609,.129-.136,.346-.271,.698-.271,.203,0,.366,.041,.528,.149,.095,.061,.224,.169,.325,.352l-.494,.325Z"/>
    <path class="cls-15" d="M188.17,215.659c-.305-.298-.604-.353-.807-.353-.312,0-.508,.129-.63,.251s-.244,.339-.244,.657c0,.332,.129,.556,.258,.685,.149,.142,.359,.23,.603,.23,.271,0,.59-.108,.82-.366v.738c-.163,.102-.427,.224-.867,.224-.475,0-.813-.136-1.084-.42-.203-.21-.406-.549-.406-1.07,0-.535,.223-.895,.434-1.104,.223-.224,.582-.42,1.145-.42,.217,0,.475,.034,.779,.203v.745Z"/>
    <path class="cls-15" d="M188.808,212.699h.664v2.33c.284-.291,.597-.318,.766-.318,.521,0,.759,.271,.84,.386,.177,.258,.183,.59,.183,.793v1.748h-.663v-1.687c0-.17,0-.353-.129-.495-.075-.081-.203-.149-.373-.149-.224,0-.399,.109-.487,.237-.095,.136-.136,.353-.136,.719v1.375h-.664v-4.938Z"/>
    <path class="cls-15" d="M192.691,214.785v1.633c0,.17,.007,.366,.122,.516,.088,.114,.244,.196,.434,.196s.346-.082,.434-.196c.115-.149,.122-.346,.122-.516v-1.633h.664v1.653c0,.366-.041,.671-.306,.935-.257,.258-.609,.353-.928,.353-.291,0-.644-.088-.901-.353-.264-.264-.305-.568-.305-.935v-1.653h.664Z"/>
    <path class="cls-15" d="M195.992,215.396v2.242h-.664v-2.242h-.277v-.61h.277v-1.043h.664v1.043h.508v.61h-.508Z"/>
    <path class="cls-15" d="M197.889,217.028h1.694v.609h-3.001l1.849-2.242h-1.456v-.61h2.75l-1.836,2.243Z"/>
  </g>
  <g>
    <path class="cls-15" d="M168.867,250.129c-.041-.102-.102-.196-.203-.284-.143-.115-.292-.162-.488-.162-.42,0-.637,.25-.637,.542,0,.135,.048,.372,.488,.549l.454,.183c.833,.339,1.064,.812,1.064,1.328,0,.86-.61,1.449-1.457,1.449-.521,0-.833-.196-1.063-.454-.244-.271-.353-.568-.379-.881l.684-.148c0,.224,.082,.434,.19,.576,.128,.162,.318,.271,.589,.271,.42,0,.745-.305,.745-.759,0-.461-.352-.65-.65-.772l-.434-.183c-.373-.156-.921-.468-.921-1.146,0-.609,.474-1.192,1.321-1.192,.488,0,.766,.184,.908,.306,.122,.108,.251,.264,.346,.453l-.556,.325Z"/>
    <path class="cls-15" d="M170.975,251.403v2.242h-.664v-2.242h-.278v-.61h.278v-1.043h.664v1.043h.508v.61h-.508Z"/>
    <path class="cls-15" d="M171.931,250.793h.664v.258c.075-.088,.183-.183,.278-.237,.129-.074,.257-.095,.406-.095,.163,0,.339,.027,.522,.136l-.271,.603c-.149-.095-.271-.102-.339-.102-.142,0-.285,.021-.413,.156-.183,.196-.183,.467-.183,.657v1.477h-.664v-2.853Z"/>
    <path class="cls-15" d="M176.945,252.223c0,.874-.665,1.511-1.525,1.511s-1.524-.637-1.524-1.511c0-.881,.664-1.504,1.524-1.504s1.525,.623,1.525,1.504Zm-.677,.007c0-.65-.427-.915-.848-.915s-.847,.265-.847,.915c0,.549,.325,.908,.847,.908s.848-.359,.848-.908Z"/>
    <path class="cls-15" d="M177.638,250.793h.664v.265c.224-.271,.487-.339,.704-.339,.299,0,.576,.143,.739,.42,.237-.339,.596-.42,.847-.42,.346,0,.65,.162,.812,.447,.055,.095,.149,.305,.149,.718v1.762h-.664v-1.571c0-.319-.034-.447-.061-.509-.041-.108-.143-.251-.38-.251-.162,0-.305,.089-.393,.211-.115,.162-.129,.406-.129,.65v1.47h-.664v-1.571c0-.319-.034-.447-.061-.509-.041-.108-.143-.251-.38-.251-.162,0-.305,.089-.393,.211-.115,.162-.129,.406-.129,.65v1.47h-.664v-2.853Z"/>
    <path class="cls-15" d="M183.337,253.036h1.694v.609h-3.002l1.85-2.242h-1.456v-.61h2.751l-1.837,2.243Z"/>
    <path class="cls-15" d="M187.634,250.793h.664v2.853h-.664v-.298c-.291,.339-.65,.386-.854,.386-.881,0-1.382-.731-1.382-1.518,0-.928,.637-1.497,1.389-1.497,.21,0,.575,.055,.847,.406v-.332Zm-1.423-1.423c.237,0,.42,.184,.42,.421s-.183,.42-.42,.42-.42-.184-.42-.42,.183-.421,.42-.421Zm-.136,2.859c0,.495,.312,.908,.793,.908,.42,0,.806-.306,.806-.901,0-.623-.386-.922-.806-.922-.481,0-.793,.407-.793,.915Zm1.355-2.859c.237,0,.42,.184,.42,.421s-.183,.42-.42,.42-.42-.184-.42-.42,.183-.421,.42-.421Z"/>
    <path class="cls-15" d="M189.139,248.707h.664v2.33c.284-.291,.596-.318,.766-.318,.521,0,.759,.271,.84,.386,.177,.258,.184,.59,.184,.793v1.748h-.664v-1.687c0-.17,0-.353-.129-.495-.074-.081-.203-.149-.373-.149-.224,0-.399,.109-.487,.237-.095,.136-.136,.353-.136,.719v1.375h-.664v-4.938Z"/>
    <path class="cls-15" d="M193.097,248.707v4.938h-.664v-4.938h.664Z"/>
    <path class="cls-15" d="M196.492,252.995c-.122,.217-.299,.406-.481,.521-.23,.149-.535,.217-.84,.217-.38,0-.691-.095-.962-.365s-.42-.664-.42-1.091c0-.44,.155-.867,.453-1.173,.237-.236,.549-.386,.955-.386,.454,0,.746,.196,.915,.373,.366,.379,.399,.907,.399,1.205v.082h-2.046c.014,.203,.102,.434,.244,.575,.156,.156,.346,.184,.508,.184,.184,0,.318-.041,.454-.143,.115-.088,.203-.203,.265-.312l.556,.312Zm-.657-1.158c-.027-.156-.102-.292-.204-.387-.088-.081-.229-.162-.446-.162-.23,0-.38,.095-.468,.183-.095,.088-.17,.224-.203,.366h1.321Z"/>
    <path class="cls-15" d="M197.204,250.793h.664v.258c.074-.088,.183-.183,.277-.237,.129-.074,.258-.095,.407-.095,.162,0,.339,.027,.521,.136l-.271,.603c-.148-.095-.271-.102-.338-.102-.143,0-.285,.021-.414,.156-.183,.196-.183,.467-.183,.657v1.477h-.664v-2.853Z"/>
    <path class="cls-15" d="M204.691,251.985l-.535,.617,.834,1.043h-.841l-.446-.556c-.103,.108-.237,.23-.38,.332-.277,.196-.562,.312-.989,.312-.847,0-1.354-.562-1.354-1.294,0-.596,.305-.908,.65-1.165,.122-.088,.318-.224,.358-.251-.155-.155-.447-.501-.447-.935,0-.515,.325-1.044,1.071-1.044,.718,0,1.084,.495,1.084,.976,0,.292-.115,.481-.197,.59-.108,.143-.264,.298-.562,.521l.799,.976,.515-.582,.44,.46Zm-2.296-.467c-.149,.081-.366,.229-.495,.372-.189,.203-.244,.413-.244,.576,0,.365,.278,.685,.705,.685,.189,0,.346-.068,.508-.177,.143-.102,.339-.291,.42-.372l-.894-1.084Zm.393-1.051c.162-.115,.271-.277,.271-.447,0-.196-.128-.406-.446-.406-.278,0-.434,.17-.434,.399,0,.156,.081,.306,.155,.394l.203,.244,.251-.184Z"/>
    <path class="cls-15" d="M207.804,249.127v4.519h-.691v-4.519h.691Z"/>
    <path class="cls-15" d="M210.141,249.777v3.868h-.69v-3.868h-1.037v-.65h2.765v.65h-1.037Z"/>
    <path class="cls-15" d="M211.585,251.857h1.626v.69h-1.626v-.69Z"/>
    <path class="cls-15" d="M216.044,250.129c-.041-.102-.102-.196-.203-.284-.143-.115-.291-.162-.488-.162-.42,0-.637,.25-.637,.542,0,.135,.048,.372,.488,.549l.454,.183c.833,.339,1.063,.812,1.063,1.328,0,.86-.61,1.449-1.457,1.449-.521,0-.833-.196-1.063-.454-.244-.271-.353-.568-.379-.881l.684-.148c0,.224,.081,.434,.189,.576,.129,.162,.318,.271,.59,.271,.42,0,.745-.305,.745-.759,0-.461-.353-.65-.65-.772l-.434-.183c-.372-.156-.921-.468-.921-1.146,0-.609,.474-1.192,1.32-1.192,.488,0,.766,.184,.908,.306,.122,.108,.251,.264,.346,.453l-.556,.325Z"/>
    <path class="cls-15" d="M218.308,253.198l-1.219-2.405h.799l.813,1.667,.826-1.667h.745l-2.27,4.404h-.745l1.05-1.999Z"/>
    <path class="cls-15" d="M221.914,251.545c-.068-.108-.197-.243-.407-.243-.095,0-.162,.033-.203,.074-.033,.034-.061,.088-.061,.149,0,.074,.034,.121,.095,.162,.041,.027,.081,.041,.224,.115l.339,.169c.148,.075,.291,.149,.399,.265,.156,.156,.21,.332,.21,.528,0,.258-.095,.481-.251,.65-.224,.244-.501,.318-.799,.318-.183,0-.413-.027-.616-.183-.163-.122-.299-.318-.366-.521l.542-.258c.034,.095,.095,.217,.155,.271,.041,.04,.136,.108,.292,.108,.102,0,.21-.034,.271-.096,.055-.054,.095-.142,.095-.224,0-.081-.026-.148-.088-.217-.081-.081-.176-.128-.284-.176l-.244-.115c-.129-.061-.284-.136-.393-.244-.149-.142-.203-.298-.203-.48,0-.23,.088-.454,.236-.609,.129-.136,.346-.271,.698-.271,.203,0,.366,.041,.528,.149,.095,.061,.224,.169,.325,.352l-.494,.325Z"/>
    <path class="cls-15" d="M223.791,251.403v2.242h-.664v-2.242h-.277v-.61h.277v-1.043h.664v1.043h.508v.61h-.508Z"/>
    <path class="cls-15" d="M227.301,252.995c-.122,.217-.299,.406-.481,.521-.23,.149-.535,.217-.84,.217-.38,0-.691-.095-.962-.365s-.42-.664-.42-1.091c0-.44,.155-.867,.453-1.173,.237-.236,.549-.386,.955-.386,.454,0,.746,.196,.915,.373,.366,.379,.399,.907,.399,1.205v.082h-2.046c.014,.203,.102,.434,.244,.575,.156,.156,.346,.184,.508,.184,.184,0,.318-.041,.454-.143,.115-.088,.203-.203,.265-.312l.556,.312Zm-.657-1.158c-.027-.156-.102-.292-.204-.387-.088-.081-.229-.162-.446-.162-.23,0-.38,.095-.468,.183-.095,.088-.17,.224-.203,.366h1.321Z"/>
    <path class="cls-15" d="M228.013,250.793h.664v.265c.224-.271,.487-.339,.704-.339,.299,0,.576,.143,.739,.42,.237-.339,.596-.42,.847-.42,.346,0,.65,.162,.812,.447,.055,.095,.149,.305,.149,.718v1.762h-.664v-1.571c0-.319-.034-.447-.061-.509-.041-.108-.143-.251-.38-.251-.162,0-.305,.089-.393,.211-.115,.162-.129,.406-.129,.65v1.47h-.664v-1.571c0-.319-.034-.447-.061-.509-.041-.108-.143-.251-.38-.251-.162,0-.305,.089-.393,.211-.115,.162-.129,.406-.129,.65v1.47h-.664v-2.853Z"/>
  </g>
  <line class="cls-1" x1="153.073" y1="288.283" x2="183.6" y2="288.283"/>
  <g>
    <path class="cls-15" d="M167.6,281.221c.583,0,.949,.074,1.247,.352,.244,.23,.359,.522,.359,.895,0,.177-.027,.359-.136,.535-.102,.177-.237,.265-.339,.312,.082,.021,.359,.095,.583,.325,.244,.258,.298,.569,.298,.848,0,.325-.081,.582-.298,.812-.359,.38-.921,.44-1.267,.44h-1.131v-4.519h.684Zm.007,1.944h.21c.169,0,.4-.021,.562-.177,.156-.148,.176-.358,.176-.515,0-.136-.021-.298-.163-.434-.156-.149-.353-.169-.549-.169h-.237v1.294Zm0,1.924h.42c.196,0,.508-.034,.684-.176,.135-.108,.224-.299,.224-.502,0-.183-.068-.358-.183-.474-.189-.184-.467-.203-.711-.203h-.434v1.354Z"/>
    <path class="cls-15" d="M172.913,285.089c-.122,.217-.298,.406-.481,.521-.23,.149-.535,.217-.84,.217-.379,0-.691-.095-.962-.365-.271-.271-.42-.664-.42-1.091,0-.44,.156-.867,.454-1.173,.237-.236,.549-.386,.955-.386,.454,0,.745,.196,.915,.373,.366,.379,.4,.907,.4,1.205v.082h-2.046c.013,.203,.102,.434,.244,.575,.156,.156,.346,.184,.508,.184,.183,0,.318-.041,.454-.143,.115-.088,.204-.203,.264-.312l.556,.312Zm-.657-1.158c-.027-.156-.102-.292-.203-.387-.088-.081-.23-.162-.447-.162-.23,0-.379,.095-.467,.183-.095,.088-.169,.224-.203,.366h1.321Z"/>
    <path class="cls-15" d="M174.309,283.497v2.242h-.664v-2.242h-.278v-.61h.278v-1.043h.664v1.043h.509v.61h-.509Z"/>
    <path class="cls-15" d="M178.165,284.316c0,.874-.663,1.511-1.524,1.511s-1.524-.637-1.524-1.511c0-.881,.663-1.504,1.524-1.504s1.524,.623,1.524,1.504Zm-.677,.007c0-.65-.427-.915-.848-.915s-.847,.265-.847,.915c0,.549,.325,.908,.847,.908s.848-.359,.848-.908Z"/>
    <path class="cls-15" d="M178.851,282.887h.664v.265c.284-.318,.609-.339,.772-.339,.528,0,.752,.265,.84,.386,.108,.156,.177,.353,.177,.793v1.748h-.664v-1.585c0-.726-.271-.746-.522-.746-.298,0-.603,.041-.603,.963v1.368h-.664v-2.853Z"/>
    <path class="cls-15" d="M183.392,283.639c-.068-.108-.197-.243-.407-.243-.095,0-.162,.033-.203,.074-.033,.034-.061,.088-.061,.149,0,.074,.033,.121,.095,.162,.041,.027,.081,.041,.224,.115l.339,.169c.148,.075,.291,.149,.399,.265,.156,.156,.21,.332,.21,.528,0,.258-.095,.481-.251,.65-.223,.244-.501,.318-.799,.318-.184,0-.413-.027-.617-.183-.162-.122-.298-.318-.365-.521l.542-.258c.034,.095,.095,.217,.155,.271,.041,.04,.136,.108,.292,.108,.102,0,.21-.034,.271-.096,.055-.054,.095-.142,.095-.224,0-.081-.026-.148-.088-.217-.081-.081-.176-.128-.284-.176l-.244-.115c-.129-.061-.284-.136-.393-.244-.149-.142-.203-.298-.203-.48,0-.23,.088-.454,.236-.609,.129-.136,.346-.271,.698-.271,.203,0,.366,.041,.528,.149,.095,.061,.224,.169,.325,.352l-.494,.325Z"/>
    <path class="cls-15" d="M187.483,284.316c0,.874-.663,1.511-1.524,1.511s-1.523-.637-1.523-1.511c0-.881,.663-1.504,1.523-1.504s1.524,.623,1.524,1.504Zm-.677,.007c0-.65-.427-.915-.848-.915s-.847,.265-.847,.915c0,.549,.325,.908,.847,.908s.848-.359,.848-.908Z"/>
    <path class="cls-15" d="M190.385,283.761c-.305-.298-.604-.353-.807-.353-.312,0-.508,.129-.63,.251s-.244,.339-.244,.657c0,.332,.129,.556,.258,.685,.149,.142,.359,.23,.603,.23,.271,0,.59-.108,.82-.366v.738c-.163,.102-.427,.224-.867,.224-.475,0-.813-.136-1.084-.42-.203-.21-.406-.549-.406-1.07,0-.535,.223-.895,.434-1.104,.223-.224,.582-.42,1.145-.42,.217,0,.475,.034,.779,.203v.745Z"/>
    <path class="cls-15" d="M191.687,280.801v3.041l.928-.955h.881l-1.226,1.186,1.314,1.667h-.841l-.935-1.22-.122,.122v1.098h-.664v-4.938h.664Z"/>
    <path class="cls-15" d="M196.498,285.089c-.122,.217-.299,.406-.481,.521-.23,.149-.535,.217-.84,.217-.38,0-.691-.095-.962-.365s-.42-.664-.42-1.091c0-.44,.155-.867,.453-1.173,.237-.236,.549-.386,.955-.386,.454,0,.746,.196,.915,.373,.366,.379,.399,.907,.399,1.205v.082h-2.046c.014,.203,.102,.434,.244,.575,.156,.156,.346,.184,.508,.184,.184,0,.318-.041,.454-.143,.115-.088,.203-.203,.265-.312l.556,.312Zm-.657-1.158c-.027-.156-.102-.292-.204-.387-.088-.081-.229-.162-.446-.162-.23,0-.38,.095-.468,.183-.095,.088-.17,.224-.203,.366h1.321Z"/>
    <path class="cls-15" d="M197.874,280.801v4.938h-.664v-4.938h.664Z"/>
  </g>
  <g>
    <rect class="cls-13" x="238.059" y="156.064" width="193.585" height="9.884"/>
    <line class="cls-6" x1="238.624" y1="170.608" x2="238.624" y2="297.405"/>
    <line class="cls-6" x1="335.769" y1="170.608" x2="335.769" y2="297.405"/>
    <line class="cls-6" x1="430.232" y1="170.608" x2="430.232" y2="297.405"/>
    <rect class="cls-15" x="324.473" y="159.029" width="22.733" height="4.095" rx="1.162" ry="1.162"/>
    <circle class="cls-12" cx="327.156" cy="161.006" r="1.412"/>
    <circle class="cls-12" cx="344.665" cy="161.006" r="1.412"/>
    <path class="cls-7" d="M289.75,178.5c0-2,1.228-5.055,2.671-6.339,3.563-3.17,9.925-1.344,13.132-.424,7.058,2.026,7.961,4.845,11.861,4.236,4.687-.732,7.454-5.441,7.907-6.213,2.203-3.749,1.978-7.44,1.836-8.754"/>
    <path class="cls-7" d="M354.25,207.75c-1,0-11.701,3.125-11.985-3.678-.31-7.43,1.404-13.157,1.836-14.544,2.479-7.966,4.857-8.366,5.507-13.132,.452-3.315,.026-8.441-4.942-15.391"/>
    <rect class="cls-13" x="238.059" y="47.199" width="193.585" height="9.884"/>
    <rect class="cls-15" x="361.75" y="50.164" width="22.733" height="4.095" rx="1.162" ry="1.162"/>
    <circle class="cls-12" cx="364.433" cy="52.141" r="1.412"/>
    <circle class="cls-12" cx="381.942" cy="52.141" r="1.412"/>
    <line class="cls-6" x1="373.187" y1="59.06" x2="373.187" y2="133.754"/>
    <line class="cls-6" x1="238.624" y1="59.06" x2="238.624" y2="133.754"/>
    <line class="cls-6" x1="236.506" y1="133.896" x2="431.927" y2="133.896"/>
    <path class="cls-7" d="M339.25,66.5c0-1,2.411-3.72,3.156-4.334,3.844-3.166,5.075,.7,9.602,.847,4.022,.131,9.451-1.418,11.578-5.366,1.116-2.07,1.021-4.238,.847-5.507"/>
    <path class="cls-7" d="M379.75,97.25c-.75,0-2.521,.067-3.739-.49-2.367-1.084-4.485-2.89-5.366-4.377-.778-1.314-1.493-3.904,4.377-15.673,4.063-8.146,5.818-9.736,6.778-14.544,.794-3.978,.494-7.401,.141-9.602"/>
    <g>
      <path class="cls-15" d="M242.964,37.171v3.868h1.327v.65h-2.019v-4.519h.691Z"/>
      <path class="cls-15" d="M246.907,38.837h.664v2.853h-.664v-.298c-.291,.339-.65,.386-.854,.386-.881,0-1.382-.731-1.382-1.518,0-.928,.637-1.497,1.389-1.497,.21,0,.575,.054,.847,.406v-.332Zm-1.559,1.437c0,.494,.312,.908,.793,.908,.42,0,.806-.305,.806-.901,0-.623-.386-.921-.806-.921-.481,0-.793,.406-.793,.914Z"/>
      <path class="cls-15" d="M250.499,36.751h.664v4.938h-.664v-.298c-.291,.339-.65,.386-.854,.386-.881,0-1.382-.731-1.382-1.518,0-.928,.637-1.497,1.389-1.497,.21,0,.575,.054,.847,.406v-2.418Zm-1.559,3.522c0,.494,.312,.908,.793,.908,.42,0,.806-.305,.806-.901,0-.623-.386-.921-.806-.921-.481,0-.793,.406-.793,.914Z"/>
      <path class="cls-15" d="M254.559,41.039c-.122,.217-.299,.406-.481,.521-.23,.149-.535,.217-.84,.217-.38,0-.691-.095-.962-.365s-.42-.664-.42-1.091c0-.44,.155-.867,.453-1.173,.237-.236,.549-.386,.955-.386,.454,0,.746,.196,.915,.373,.366,.379,.399,.907,.399,1.205v.082h-2.046c.014,.203,.102,.434,.244,.575,.156,.156,.346,.184,.508,.184,.184,0,.318-.041,.454-.143,.115-.088,.203-.203,.265-.312l.556,.312Zm-.657-1.158c-.027-.156-.102-.292-.204-.387-.088-.081-.229-.162-.446-.162-.23,0-.38,.095-.468,.183-.095,.088-.17,.224-.203,.366h1.321Z"/>
      <path class="cls-15" d="M255.935,43.241h-.664v-4.404h.664v.312c.244-.291,.562-.386,.847-.386,.752,0,1.389,.576,1.389,1.483,0,.962-.704,1.531-1.382,1.531-.155,0-.556-.054-.854-.42v1.884Zm-.041-2.961c0,.597,.387,.901,.807,.901,.481,0,.793-.414,.793-.908,0-.508-.312-.914-.793-.914-.42,0-.807,.298-.807,.921Z"/>
      <path class="cls-15" d="M259.526,38.837v1.633c0,.17,.007,.366,.122,.515,.088,.115,.244,.197,.434,.197s.346-.082,.434-.197c.115-.148,.122-.345,.122-.515v-1.633h.664v1.653c0,.366-.041,.671-.306,.935-.257,.258-.609,.353-.928,.353-.291,0-.644-.088-.901-.353-.264-.264-.305-.568-.305-.935v-1.653h.664Z"/>
      <path class="cls-15" d="M262.136,38.837h.664v.265c.284-.318,.609-.339,.772-.339,.528,0,.752,.265,.84,.386,.108,.156,.177,.353,.177,.793v1.748h-.664v-1.585c0-.726-.271-.745-.522-.745-.298,0-.603,.04-.603,.962v1.368h-.664v-2.853Z"/>
      <path class="cls-15" d="M266.094,36.751v3.042l.928-.956h.881l-1.226,1.186,1.313,1.667h-.84l-.935-1.22-.122,.122v1.098h-.664v-4.938h.664Z"/>
      <path class="cls-15" d="M269.11,39.447v2.242h-.664v-2.242h-.278v-.61h.278v-1.043h.664v1.043h.508v.61h-.508Z"/>
      <path class="cls-15" d="M272.152,38.837h.664v2.853h-.664v-.298c-.291,.339-.65,.386-.854,.386-.881,0-1.383-.731-1.383-1.518,0-.928,.638-1.497,1.39-1.497,.21,0,.575,.054,.847,.406v-.332Zm-1.559,1.437c0,.494,.312,.908,.793,.908,.42,0,.807-.305,.807-.901,0-.623-.387-.921-.807-.921-.481,0-.793,.406-.793,.914Z"/>
      <path class="cls-15" d="M273.65,38.837h.664v.265c.284-.318,.609-.339,.772-.339,.528,0,.752,.265,.84,.386,.108,.156,.177,.353,.177,.793v1.748h-.664v-1.585c0-.726-.271-.745-.521-.745-.299,0-.604,.04-.604,.962v1.368h-.664v-2.853Z"/>
      <path class="cls-15" d="M279.844,40.267c0,.874-.664,1.511-1.524,1.511s-1.524-.637-1.524-1.511c0-.881,.664-1.504,1.524-1.504s1.524,.623,1.524,1.504Zm-.677,.007c0-.65-.427-.914-.848-.914s-.847,.264-.847,.914c0,.549,.325,.908,.847,.908s.848-.359,.848-.908Z"/>
      <path class="cls-15" d="M280.536,38.837h.664v.258c.074-.088,.183-.183,.277-.237,.129-.074,.258-.095,.407-.095,.162,0,.339,.027,.521,.136l-.271,.603c-.148-.095-.271-.102-.338-.102-.143,0-.285,.021-.414,.156-.183,.196-.183,.467-.183,.657v1.477h-.664v-2.853Z"/>
      <path class="cls-15" d="M284.663,36.751h.664v4.938h-.664v-.298c-.291,.339-.65,.386-.854,.386-.881,0-1.382-.731-1.382-1.518,0-.928,.637-1.497,1.389-1.497,.21,0,.575,.054,.847,.406v-2.418Zm-1.559,3.522c0,.494,.312,.908,.793,.908,.42,0,.806-.305,.806-.901,0-.623-.386-.921-.806-.921-.481,0-.793,.406-.793,.914Z"/>
      <path class="cls-15" d="M286.161,38.837h.664v.265c.284-.318,.609-.339,.772-.339,.528,0,.752,.265,.84,.386,.108,.156,.177,.353,.177,.793v1.748h-.664v-1.585c0-.726-.271-.745-.522-.745-.298,0-.603,.04-.603,.962v1.368h-.664v-2.853Z"/>
      <path class="cls-15" d="M290.119,38.837v1.633c0,.17,.007,.366,.122,.515,.088,.115,.244,.197,.434,.197s.346-.082,.434-.197c.115-.148,.122-.345,.122-.515v-1.633h.664v1.653c0,.366-.041,.671-.306,.935-.257,.258-.609,.353-.928,.353-.291,0-.644-.088-.901-.353-.264-.264-.305-.568-.305-.935v-1.653h.664Z"/>
      <path class="cls-15" d="M292.729,38.837h.664v.265c.284-.318,.609-.339,.772-.339,.528,0,.752,.265,.84,.386,.108,.156,.177,.353,.177,.793v1.748h-.664v-1.585c0-.726-.271-.745-.521-.745-.299,0-.604,.04-.604,.962v1.368h-.664v-2.853Z"/>
      <path class="cls-15" d="M298.109,38.837h.664v2.622c0,.671-.075,1.152-.468,1.483-.183,.149-.481,.306-.948,.306-.332,0-.664-.082-.936-.353-.21-.21-.372-.542-.42-.888h.644c.027,.156,.108,.339,.21,.447,.082,.088,.244,.196,.516,.196,.277,0,.44-.108,.521-.189,.217-.21,.217-.508,.217-.718v-.373c-.305,.386-.678,.406-.867,.406-.366,0-.671-.102-.941-.386-.258-.271-.428-.657-.428-1.132,0-.521,.197-.881,.421-1.104,.284-.291,.623-.393,.969-.393,.284,0,.603,.095,.847,.386v-.312Zm-1.267,.712c-.17,.155-.292,.42-.292,.725,0,.284,.108,.562,.285,.718,.121,.108,.305,.19,.508,.19,.21,0,.393-.062,.556-.23,.196-.21,.251-.454,.251-.671,0-.318-.103-.556-.271-.718-.162-.163-.346-.203-.535-.203-.183,0-.353,.047-.501,.189Z"/>
      <path class="cls-15" d="M302.007,37.171v3.868h1.327v.65h-2.019v-4.519h.691Z"/>
      <path class="cls-15" d="M305.95,38.837h.664v2.853h-.664v-.298c-.291,.339-.65,.386-.854,.386-.881,0-1.382-.731-1.382-1.518,0-.928,.637-1.497,1.389-1.497,.21,0,.575,.054,.847,.406v-.332Zm-1.423-1.423c.237,0,.42,.184,.42,.421s-.183,.42-.42,.42-.42-.184-.42-.42,.183-.421,.42-.421Zm-.136,2.859c0,.494,.312,.908,.793,.908,.42,0,.806-.305,.806-.901,0-.623-.386-.921-.806-.921-.481,0-.793,.406-.793,.914Zm1.355-2.859c.237,0,.42,.184,.42,.421s-.183,.42-.42,.42-.42-.184-.42-.42,.183-.421,.42-.421Z"/>
      <path class="cls-15" d="M307.448,38.837h.664v.265c.284-.318,.609-.339,.772-.339,.528,0,.752,.265,.84,.386,.108,.156,.177,.353,.177,.793v1.748h-.664v-1.585c0-.726-.271-.745-.522-.745-.298,0-.603,.04-.603,.962v1.368h-.664v-2.853Z"/>
      <path class="cls-15" d="M312.829,38.837h.664v2.622c0,.671-.075,1.152-.468,1.483-.183,.149-.48,.306-.948,.306-.332,0-.664-.082-.936-.353-.21-.21-.372-.542-.42-.888h.644c.027,.156,.108,.339,.21,.447,.082,.088,.244,.196,.516,.196,.277,0,.44-.108,.521-.189,.217-.21,.217-.508,.217-.718v-.373c-.305,.386-.678,.406-.867,.406-.366,0-.671-.102-.941-.386-.258-.271-.427-.657-.427-1.132,0-.521,.196-.881,.42-1.104,.284-.291,.623-.393,.969-.393,.284,0,.603,.095,.847,.386v-.312Zm-1.267,.712c-.17,.155-.292,.42-.292,.725,0,.284,.108,.562,.285,.718,.122,.108,.305,.19,.508,.19,.21,0,.393-.062,.556-.23,.196-.21,.25-.454,.25-.671,0-.318-.102-.556-.271-.718-.163-.163-.346-.203-.535-.203-.183,0-.353,.047-.501,.189Z"/>
      <path class="cls-15" d="M315.581,39.589c-.068-.108-.197-.243-.407-.243-.095,0-.162,.033-.203,.074-.033,.034-.061,.088-.061,.149,0,.074,.033,.121,.095,.162,.041,.027,.081,.041,.224,.115l.339,.169c.148,.075,.291,.149,.399,.265,.156,.156,.21,.332,.21,.528,0,.258-.095,.481-.251,.65-.223,.244-.501,.318-.799,.318-.184,0-.413-.027-.617-.183-.162-.122-.298-.318-.365-.521l.542-.258c.034,.095,.095,.217,.155,.271,.041,.04,.136,.108,.292,.108,.102,0,.21-.034,.271-.096,.055-.054,.095-.142,.095-.223,0-.082-.026-.149-.088-.217-.081-.082-.176-.129-.284-.177l-.244-.115c-.129-.061-.284-.136-.393-.244-.149-.142-.203-.298-.203-.48,0-.23,.088-.454,.236-.61,.129-.135,.346-.271,.698-.271,.203,0,.366,.041,.528,.149,.095,.061,.224,.169,.325,.352l-.494,.325Z"/>
      <path class="cls-15" d="M317.438,43.241h-.664v-4.404h.664v.312c.244-.291,.562-.386,.847-.386,.752,0,1.389,.576,1.389,1.483,0,.962-.704,1.531-1.382,1.531-.155,0-.556-.054-.854-.42v1.884Zm-.041-2.961c0,.597,.387,.901,.807,.901,.48,0,.793-.414,.793-.908,0-.508-.312-.914-.793-.914-.42,0-.807,.298-.807,.921Z"/>
      <path class="cls-15" d="M322.452,38.837h.664v2.853h-.664v-.298c-.291,.339-.65,.386-.854,.386-.881,0-1.382-.731-1.382-1.518,0-.928,.637-1.497,1.389-1.497,.21,0,.575,.054,.847,.406v-.332Zm-1.559,1.437c0,.494,.312,.908,.793,.908,.42,0,.806-.305,.806-.901,0-.623-.386-.921-.806-.921-.481,0-.793,.406-.793,.914Z"/>
      <path class="cls-15" d="M323.957,38.837h.664v.258c.074-.088,.183-.183,.277-.237,.129-.074,.258-.095,.407-.095,.162,0,.339,.027,.521,.136l-.271,.603c-.148-.095-.271-.102-.339-.102-.142,0-.284,.021-.413,.156-.183,.196-.183,.467-.183,.657v1.477h-.664v-2.853Z"/>
      <path class="cls-15" d="M326.871,36.751v3.042l.928-.956h.881l-1.226,1.186,1.313,1.667h-.84l-.935-1.22-.122,.122v1.098h-.664v-4.938h.664Z"/>
      <path class="cls-15" d="M331.683,41.039c-.122,.217-.299,.406-.481,.521-.23,.149-.535,.217-.84,.217-.38,0-.691-.095-.962-.365s-.421-.664-.421-1.091c0-.44,.156-.867,.454-1.173,.237-.236,.549-.386,.956-.386,.453,0,.745,.196,.914,.373,.366,.379,.399,.907,.399,1.205v.082h-2.046c.014,.203,.102,.434,.244,.575,.156,.156,.346,.184,.508,.184,.184,0,.318-.041,.454-.143,.115-.088,.203-.203,.265-.312l.556,.312Zm-.657-1.158c-.027-.156-.102-.292-.203-.387-.089-.081-.23-.162-.447-.162-.23,0-.38,.095-.468,.183-.095,.088-.169,.224-.203,.366h1.321Z"/>
      <path class="cls-15" d="M332.388,38.837h.664v.265c.284-.318,.609-.339,.772-.339,.528,0,.752,.265,.84,.386,.108,.156,.177,.353,.177,.793v1.748h-.664v-1.585c0-.726-.271-.745-.522-.745-.298,0-.603,.04-.603,.962v1.368h-.664v-2.853Z"/>
    </g>
    <g>
      <path class="cls-15" d="M242.137,152.107l.949-4.857,1.571,3.509,1.585-3.509,.854,4.857h-.704l-.461-2.724-1.314,2.934-1.301-2.94-.474,2.73h-.705Z"/>
      <path class="cls-15" d="M248.257,147.649c.244,0,.427,.183,.427,.427s-.183,.427-.427,.427-.427-.183-.427-.427,.183-.427,.427-.427Zm.332,1.605v2.853h-.664v-2.853h.664Z"/>
      <path class="cls-15" d="M250.114,149.865v2.242h-.664v-2.242h-.278v-.61h.278v-1.043h.664v1.043h.508v.61h-.508Z"/>
      <path class="cls-15" d="M251.89,149.865v2.242h-.664v-2.242h-.278v-.61h.278v-1.043h.664v1.043h.508v.61h-.508Z"/>
      <path class="cls-15" d="M253.177,147.649c.244,0,.427,.183,.427,.427s-.183,.427-.427,.427-.427-.183-.427-.427,.183-.427,.427-.427Zm.332,1.605v2.853h-.664v-2.853h.664Z"/>
      <path class="cls-15" d="M256.437,149.255h.664v2.622c0,.671-.075,1.152-.468,1.483-.183,.149-.48,.306-.948,.306-.332,0-.664-.082-.936-.353-.21-.21-.372-.542-.42-.888h.644c.027,.156,.108,.339,.21,.447,.082,.088,.244,.196,.516,.196,.277,0,.44-.108,.521-.189,.217-.21,.217-.508,.217-.718v-.373c-.305,.386-.678,.406-.867,.406-.366,0-.671-.102-.941-.386-.258-.271-.427-.657-.427-1.132,0-.521,.196-.881,.42-1.104,.284-.291,.623-.393,.969-.393,.284,0,.603,.095,.847,.386v-.312Zm-1.267,.712c-.17,.155-.292,.42-.292,.725,0,.284,.108,.562,.285,.718,.122,.108,.305,.19,.508,.19,.21,0,.393-.062,.556-.23,.196-.21,.25-.454,.25-.671,0-.318-.102-.556-.271-.718-.163-.163-.346-.203-.535-.203-.183,0-.353,.047-.501,.189Z"/>
      <path class="cls-15" d="M260.496,151.457c-.122,.217-.299,.406-.481,.521-.23,.149-.535,.217-.84,.217-.38,0-.691-.095-.962-.365s-.42-.664-.42-1.091c0-.44,.155-.867,.453-1.173,.237-.236,.549-.386,.955-.386,.454,0,.746,.196,.915,.373,.366,.379,.399,.907,.399,1.205v.082h-2.046c.014,.203,.102,.434,.244,.575,.156,.156,.346,.184,.508,.184,.184,0,.318-.041,.454-.143,.115-.088,.203-.203,.265-.312l.556,.312Zm-.657-1.158c-.027-.156-.102-.292-.204-.387-.088-.081-.229-.162-.446-.162-.23,0-.38,.095-.468,.183-.095,.088-.17,.224-.203,.366h1.321Z"/>
      <path class="cls-15" d="M263.601,147.589v3.868h1.327v.65h-2.019v-4.519h.691Z"/>
      <path class="cls-15" d="M267.544,149.255h.664v2.853h-.664v-.298c-.291,.339-.65,.386-.854,.386-.881,0-1.382-.731-1.382-1.518,0-.928,.637-1.497,1.389-1.497,.21,0,.575,.054,.847,.406v-.332Zm-1.559,1.437c0,.494,.312,.908,.793,.908,.42,0,.806-.305,.806-.901,0-.623-.386-.921-.806-.921-.481,0-.793,.406-.793,.914Z"/>
      <path class="cls-15" d="M271.136,147.169h.664v4.938h-.664v-.298c-.291,.339-.65,.386-.854,.386-.881,0-1.382-.731-1.382-1.518,0-.928,.637-1.497,1.389-1.497,.21,0,.575,.054,.847,.406v-2.418Zm-1.559,3.522c0,.494,.312,.908,.793,.908,.42,0,.806-.305,.806-.901,0-.623-.386-.921-.806-.921-.481,0-.793,.406-.793,.914Z"/>
      <path class="cls-15" d="M275.195,151.457c-.122,.217-.299,.406-.481,.521-.23,.149-.535,.217-.84,.217-.38,0-.691-.095-.962-.365s-.42-.664-.42-1.091c0-.44,.155-.867,.453-1.173,.237-.236,.549-.386,.955-.386,.454,0,.746,.196,.915,.373,.366,.379,.399,.907,.399,1.205v.082h-2.046c.014,.203,.102,.434,.244,.575,.156,.156,.346,.184,.508,.184,.184,0,.318-.041,.454-.143,.115-.088,.203-.203,.265-.312l.556,.312Zm-.657-1.158c-.027-.156-.102-.292-.204-.387-.088-.081-.229-.162-.446-.162-.23,0-.38,.095-.468,.183-.095,.088-.17,.224-.203,.366h1.321Z"/>
      <path class="cls-15" d="M276.571,153.659h-.664v-4.404h.664v.312c.244-.291,.562-.386,.847-.386,.752,0,1.389,.576,1.389,1.483,0,.962-.704,1.531-1.382,1.531-.155,0-.556-.054-.854-.42v1.884Zm-.041-2.961c0,.597,.387,.901,.807,.901,.481,0,.793-.414,.793-.908,0-.508-.312-.914-.793-.914-.42,0-.807,.298-.807,.921Z"/>
      <path class="cls-15" d="M280.163,149.255v1.633c0,.17,.007,.366,.122,.515,.088,.115,.244,.197,.434,.197s.346-.082,.434-.197c.115-.148,.122-.345,.122-.515v-1.633h.664v1.653c0,.366-.041,.671-.306,.935-.257,.258-.609,.353-.928,.353-.291,0-.644-.088-.901-.353-.264-.264-.305-.568-.305-.935v-1.653h.664Z"/>
      <path class="cls-15" d="M282.772,149.255h.664v.265c.284-.318,.609-.339,.772-.339,.528,0,.752,.265,.84,.386,.108,.156,.177,.353,.177,.793v1.748h-.664v-1.585c0-.726-.271-.745-.522-.745-.298,0-.603,.04-.603,.962v1.368h-.664v-2.853Z"/>
      <path class="cls-15" d="M286.73,147.169v3.042l.928-.956h.881l-1.226,1.186,1.313,1.667h-.84l-.935-1.22-.122,.122v1.098h-.664v-4.938h.664Z"/>
      <path class="cls-15" d="M289.746,149.865v2.242h-.664v-2.242h-.277v-.61h.277v-1.043h.664v1.043h.508v.61h-.508Z"/>
      <path class="cls-15" d="M292.788,149.255h.664v2.853h-.664v-.298c-.291,.339-.65,.386-.854,.386-.881,0-1.382-.731-1.382-1.518,0-.928,.637-1.497,1.389-1.497,.21,0,.575,.054,.847,.406v-.332Zm-1.559,1.437c0,.494,.312,.908,.793,.908,.42,0,.806-.305,.806-.901,0-.623-.386-.921-.806-.921-.481,0-.793,.406-.793,.914Z"/>
      <path class="cls-15" d="M294.286,149.255h.664v.265c.284-.318,.609-.339,.772-.339,.528,0,.752,.265,.84,.386,.108,.156,.177,.353,.177,.793v1.748h-.664v-1.585c0-.726-.271-.745-.522-.745-.298,0-.603,.04-.603,.962v1.368h-.664v-2.853Z"/>
      <path class="cls-15" d="M300.479,150.685c0,.874-.663,1.511-1.524,1.511s-1.523-.637-1.523-1.511c0-.881,.663-1.504,1.523-1.504s1.524,.623,1.524,1.504Zm-.677,.007c0-.65-.427-.914-.848-.914s-.847,.264-.847,.914c0,.549,.325,.908,.847,.908s.848-.359,.848-.908Z"/>
      <path class="cls-15" d="M301.172,149.255h.664v.258c.074-.088,.183-.183,.277-.237,.129-.074,.258-.095,.407-.095,.162,0,.339,.027,.521,.136l-.271,.603c-.148-.095-.271-.102-.339-.102-.142,0-.284,.021-.413,.156-.183,.196-.183,.467-.183,.657v1.477h-.664v-2.853Z"/>
      <path class="cls-15" d="M305.299,147.169h.664v4.938h-.664v-.298c-.291,.339-.65,.386-.854,.386-.881,0-1.383-.731-1.383-1.518,0-.928,.638-1.497,1.39-1.497,.21,0,.575,.054,.847,.406v-2.418Zm-1.559,3.522c0,.494,.312,.908,.793,.908,.42,0,.807-.305,.807-.901,0-.623-.387-.921-.807-.921-.481,0-.793,.406-.793,.914Z"/>
      <path class="cls-15" d="M306.797,149.255h.664v.265c.284-.318,.609-.339,.772-.339,.528,0,.752,.265,.84,.386,.108,.156,.177,.353,.177,.793v1.748h-.664v-1.585c0-.726-.271-.745-.521-.745-.299,0-.604,.04-.604,.962v1.368h-.664v-2.853Z"/>
      <path class="cls-15" d="M310.755,149.255v1.633c0,.17,.007,.366,.122,.515,.088,.115,.244,.197,.434,.197s.346-.082,.434-.197c.115-.148,.122-.345,.122-.515v-1.633h.664v1.653c0,.366-.041,.671-.306,.935-.257,.258-.609,.353-.928,.353-.291,0-.644-.088-.901-.353-.264-.264-.305-.568-.305-.935v-1.653h.664Z"/>
      <path class="cls-15" d="M313.364,149.255h.664v.265c.284-.318,.609-.339,.772-.339,.528,0,.752,.265,.84,.386,.108,.156,.177,.353,.177,.793v1.748h-.664v-1.585c0-.726-.271-.745-.522-.745-.298,0-.603,.04-.603,.962v1.368h-.664v-2.853Z"/>
      <path class="cls-15" d="M318.745,149.255h.664v2.622c0,.671-.075,1.152-.468,1.483-.183,.149-.48,.306-.948,.306-.332,0-.664-.082-.936-.353-.21-.21-.372-.542-.42-.888h.644c.027,.156,.108,.339,.21,.447,.082,.088,.244,.196,.516,.196,.277,0,.44-.108,.521-.189,.217-.21,.217-.508,.217-.718v-.373c-.305,.386-.678,.406-.867,.406-.366,0-.671-.102-.941-.386-.258-.271-.427-.657-.427-1.132,0-.521,.196-.881,.42-1.104,.284-.291,.623-.393,.969-.393,.284,0,.603,.095,.847,.386v-.312Zm-1.267,.712c-.17,.155-.292,.42-.292,.725,0,.284,.108,.562,.285,.718,.122,.108,.305,.19,.508,.19,.21,0,.393-.062,.556-.23,.196-.21,.25-.454,.25-.671,0-.318-.102-.556-.271-.718-.163-.163-.346-.203-.535-.203-.183,0-.353,.047-.501,.189Z"/>
    </g>
    <path class="cls-14" d="M412.136,250.127c.187,8.632-.309,21.127-.562,33.622-.098,4.778-1.092,9.467-2.534,14.082-1.074,3.442-3.351,5.577-7.214,6.608-7.966,2.128-16.078,2.514-24.289,1.954-4.211-.287-8.354-.905-12.397-2.08-3.321-.967-5.412-2.824-6.478-5.831-1.937-5.465-2.846-11.074-2.921-16.766-.258-19.77-.392-39.537-.572-59.307-.025-2.789-.01-2.791-2.999-2.307-.585,.095-1.22,.262-1.663-.199-.548-.57-.118-1.152,.184-1.677,.445-.776,1.211-1.314,2.073-1.601,2.124-.704,2.5-2.087,2.478-3.947-.087-7.488-.66-14.998,.899-22.435,.095-.445,.212-.889,.262-1.34,.867-7.523,5.502-11.295,13.821-12.731,11.152-1.924,21.926-1.55,32.692,1.534,3.269,.938,5.259,2.809,6.41,5.628,1.729,4.238,2.299,8.658,2.861,13.102,.699,5.535-.139,11.042-.089,16.563,.014,1.646,.48,2.761,2.185,3.421,.536,.207,1.033,.521,1.492,.85,.887,.636,1.799,1.456,1.166,2.485-.559,.906-1.69,.405-2.519,.113-1.86-.654-2.327-.025-2.315,1.615,.06,8.259,.027,16.517,.027,28.643Zm-28.487-50.797c-6.988-.045-13.7,1.048-20.194,3.474-2.508,.936-3.29,2.224-2.904,4.505,.903,5.303,1.683,10.621,2.533,15.93,.44,2.747,1.301,3.379,4.405,3.008,6.197-.744,12.421-.857,18.657-.827,4.556,.025,9.082,.335,13.6,.819,1.91,.205,3.99,.331,4.372-1.943,1.004-5.975,1.835-11.972,2.745-17.959,.28-1.827-.775-2.712-2.541-3.399-6.606-2.57-13.51-3.663-20.673-3.608Zm-.076,98.419c4.464,.247,8.879-.325,13.303-.903,1.815-.237,2.447-1.078,2.439-2.581-.015-3.178-.036-6.356,.009-9.534,.023-1.665-.812-2.336-2.63-2.204-2.266,.164-4.536,.344-6.806,.384-6.318,.115-12.64,.182-18.943-.382-2.007-.178-2.982,.467-2.922,2.398,.092,3.1,.056,6.204,.015,9.306-.023,1.548,.686,2.357,2.443,2.587,4.337,.565,8.66,1.202,13.093,.929Zm22.005-38.547h.036c0,2.953,0,5.904-.001,8.856,0,.978,.632,1.721,1.575,1.804,1.297,.115,.974-1.05,1.021-1.678,.144-1.81,.097-3.632,.163-5.446,.146-4.159,.284-8.316,.485-12.471,.078-1.574-.622-1.868-2.115-1.294-1.055,.406-1.171,1.179-1.169,2.056,.012,2.725,.006,5.449,.006,8.173Zm3.758-40.11c-.222,.003-.445,.008-.668,.01-.184,.876-.407,1.75-.548,2.632-1.098,6.871-1.988,13.764-2.349,20.703-.037,.702-.654,1.667,.289,2.017,.779,.29,1.464-.564,2.127-1.002,.757-.501,.78-1.294,.868-2.046,.508-4.446,.163-8.905,.269-13.356,.071-2.986,.012-5.973,.012-8.959Zm-47.567,25.542c-.229-8.813-1.437-17.222-3.366-25.554-.684,7.274,.144,14.503-.029,21.741-.048,2.008,.927,3.074,3.395,3.813Zm-.047,15.126h.044c0-2.879-.007-5.756,.004-8.632,.006-1.397-1.092-1.908-2.299-1.95-1.564-.056-.962,1.196-.952,1.876,.038,2.344,.271,4.684,.357,7.027,.136,3.63-.016,7.271,.522,10.882,.076,.523-.338,1.363,.699,1.437,.611,.044,1.136-.415,1.327-.917,.212-.556,.278-1.177,.284-1.772,.028-2.649,.012-5.299,.012-7.949Zm7.19-79.487c-7.753,1.653-9.803,4.477-8.576,12.3,5.175-2.78,6.217-7.909,8.576-12.3Zm29.807,.152c2.13,4.582,3.438,9.354,8.347,12.118,1.546-7.053-1.208-11.156-8.347-12.118Z"/>
    <g>
      <path class="cls-15" d="M354.942,205.051c.775-1.084,2.023-1.787,3.431-1.787,2.352,0,4.258,1.962,4.258,4.382s-1.906,4.382-4.258,4.382c-1.408,0-2.656-.703-3.431-1.787"/>
      <circle class="cls-12" cx="356.336" cy="208.903" r=".733"/>
      <circle class="cls-12" cx="358.221" cy="207.646" r="1.152"/>
      <circle class="cls-12" cx="358.221" cy="210.265" r="1.152"/>
      <circle class="cls-12" cx="360.735" cy="209.113" r="1.152"/>
      <circle class="cls-12" cx="360.735" cy="206.285" r="1.152"/>
      <circle class="cls-12" cx="358.221" cy="205.028" r="1.152"/>
      <circle class="cls-12" cx="356.441" cy="206.18" r=".733"/>
    </g>
    <path class="cls-14" d="M317.866,254.274c.187,8.632-.309,21.127-.562,33.622-.098,4.778-1.092,9.467-2.534,14.082-1.074,3.442-3.351,5.577-7.214,6.608-7.966,2.128-16.078,2.514-24.289,1.954-4.211-.287-8.354-.905-12.397-2.08-3.321-.967-5.412-2.824-6.478-5.831-1.937-5.465-2.846-11.074-2.921-16.766-.258-19.77-.392-39.537-.572-59.307-.025-2.789-.01-2.791-2.999-2.307-.585,.095-1.22,.262-1.663-.199-.548-.57-.118-1.152,.184-1.677,.445-.776,1.211-1.314,2.073-1.601,2.124-.704,2.5-2.087,2.478-3.947-.087-7.488-.66-14.998,.899-22.435,.095-.445,.212-.889,.262-1.34,.867-7.523,5.502-11.295,13.821-12.731,11.152-1.924,21.926-1.55,32.692,1.534,3.269,.938,5.259,2.809,6.41,5.628,1.729,4.238,2.299,8.658,2.861,13.102,.699,5.535-.139,11.042-.089,16.563,.014,1.646,.48,2.761,2.185,3.421,.536,.207,1.033,.521,1.492,.85,.887,.636,1.799,1.456,1.166,2.485-.559,.906-1.69,.405-2.519,.113-1.86-.654-2.327-.025-2.315,1.615,.06,8.259,.027,16.517,.027,28.643Zm-28.487-50.797c-6.988-.045-13.7,1.048-20.194,3.474-2.508,.936-3.29,2.224-2.904,4.505,.903,5.303,1.683,10.621,2.533,15.93,.44,2.747,1.301,3.379,4.405,3.008,6.197-.744,12.421-.857,18.657-.827,4.556,.025,9.082,.335,13.6,.819,1.91,.205,3.99,.331,4.372-1.943,1.004-5.975,1.835-11.972,2.745-17.959,.28-1.827-.775-2.712-2.541-3.399-6.606-2.57-13.51-3.663-20.673-3.608Zm-.186,83.698c4.464,.111,8.879-.146,13.303-.406,1.815-.107,2.447-.485,2.439-1.161-.015-1.43-.036-2.859,.009-4.289,.023-.749-.812-1.051-2.63-.991-2.266,.074-4.536,.155-6.806,.173-6.318,.052-12.64,.082-18.943-.172-2.007-.08-2.982,.21-2.922,1.079,.092,1.395,.056,2.791,.015,4.186-.023,.696,.686,1.06,2.443,1.164,4.337,.254,8.66,.54,13.093,.418Zm22.115-23.825h.036c0,2.953,0,5.904-.001,8.856,0,.978,.632,1.721,1.575,1.804,1.297,.115,.974-1.05,1.021-1.678,.144-1.81,.097-3.632,.163-5.446,.146-4.159,.284-8.316,.485-12.471,.078-1.574-.622-1.868-2.115-1.294-1.055,.406-1.171,1.179-1.169,2.056,.012,2.725,.006,5.449,.006,8.173Zm3.758-40.11c-.222,.003-.445,.008-.668,.01-.184,.876-.407,1.75-.548,2.632-1.098,6.871-1.988,13.764-2.349,20.703-.037,.702-.654,1.667,.289,2.017,.779,.29,1.464-.564,2.127-1.002,.757-.501,.78-1.294,.868-2.046,.508-4.446,.163-8.905,.269-13.356,.071-2.986,.012-5.973,.012-8.959Zm-47.567,25.542c-.229-8.813-1.437-17.222-3.366-25.554-.684,7.274,.144,14.503-.029,21.741-.048,2.008,.927,3.074,3.395,3.813Zm-.047,15.126h.044c0-2.879-.007-5.756,.004-8.632,.006-1.397-1.092-1.908-2.299-1.95-1.564-.056-.962,1.196-.952,1.876,.038,2.344,.271,4.684,.357,7.027,.136,3.63-.016,7.271,.522,10.882,.076,.523-.338,1.363,.699,1.437,.611,.044,1.136-.415,1.327-.917,.212-.556,.278-1.177,.284-1.772,.028-2.649,.012-5.299,.012-7.949Zm7.19-79.487c-7.753,1.653-9.803,4.477-8.576,12.3,5.175-2.78,6.217-7.909,8.576-12.3Zm29.807,.152c2.13,4.582,3.438,9.354,8.347,12.118,1.546-7.053-1.208-11.156-8.347-12.118Z"/>
    <g>
      <path class="cls-15" d="M292.235,179.027c1.084,.775,1.787,2.023,1.787,3.431,0,2.352-1.962,4.258-4.382,4.258s-4.382-1.906-4.382-4.258c0-1.408,.703-2.656,1.787-3.431"/>
      <circle class="cls-12" cx="288.383" cy="180.422" r=".733"/>
      <circle class="cls-12" cx="289.64" cy="182.307" r="1.152"/>
      <circle class="cls-12" cx="287.022" cy="182.307" r="1.152"/>
      <circle class="cls-12" cx="288.174" cy="184.821" r="1.152"/>
      <circle class="cls-12" cx="291.001" cy="184.821" r="1.152"/>
      <circle class="cls-12" cx="292.258" cy="182.307" r="1.152"/>
      <circle class="cls-12" cx="291.106" cy="180.527" r=".733"/>
    </g>
    <path class="cls-14" d="M427.282,124.066c2.371-.021,4.741-.041,7.112-.061v-2.956c-3.474,.09-6.953,.113-10.442-.215,3.459-.801,6.934-1.469,10.442-2.003v-46.594c-2.599-.338-5.196-.707-7.787-1.121-.882-.141-1.756-.364-2.632-.548-.003-.223-.008-.446-.01-.668,2.986,0,5.973-.058,8.959,.012,.49,.012,.981,.016,1.471,.019v-2.837c-2.763,.004-5.401,.014-8.038,.033-1.641,.012-2.269-.454-1.615-2.315,.291-.829,.793-1.96-.113-2.519-1.029-.633-1.849,.279-2.485,1.166-.328,.459-.643,.956-.85,1.493-.66,1.706-1.775,2.171-3.421,2.185-5.52,.05-11.028-.788-16.562-.089-4.444,.562-8.864,1.133-13.102,2.861-2.82,1.151-4.69,3.141-5.628,6.41-3.084,10.766-3.458,21.54-1.534,32.692,1.435,8.319,5.208,12.954,12.731,13.821,.451,.05,.894,.167,1.34,.262,7.436,1.559,14.947,.986,22.435,.899,1.86-.022,3.243,.354,3.947,2.478,.286,.862,.825,1.628,1.601,2.073,.525,.303,1.107,.732,1.677,.184,.461-.442,.294-1.077,.199-1.663-.484-2.989-.482-2.974,2.307-2.999Zm-29.866-51.897c-2.764,4.909-7.536,6.217-12.118,8.347,.963-7.14,5.065-9.894,12.118-8.347Zm-12.27,38.154c4.391,2.36,9.521,3.401,12.3,8.576-7.824,1.227-10.648-.823-12.3-8.576Zm27.035,8.361c-2.281,.386-3.569-.396-4.505-2.904-2.427-6.494-3.519-13.207-3.474-20.194-.055-7.163,1.037-14.067,3.608-20.673,.686-1.766,1.571-2.822,3.399-2.541,5.987,.91,11.984,1.741,17.96,2.745,2.274,.383,2.147,2.462,1.943,4.373-.484,4.518-.794,9.044-.819,13.6-.03,6.236,.083,12.459,.827,18.657,.371,3.105-.261,3.965-3.008,4.405-5.309,.851-10.627,1.63-15.93,2.533Z"/>
    <g>
      <path class="cls-15" d="M380.008,94.31c.775-1.084,2.023-1.787,3.431-1.787,2.352,0,4.258,1.962,4.258,4.382s-1.906,4.382-4.258,4.382c-1.408,0-2.656-.703-3.431-1.787"/>
      <circle class="cls-12" cx="381.403" cy="98.162" r=".733"/>
      <circle class="cls-12" cx="383.288" cy="96.906" r="1.152"/>
      <circle class="cls-12" cx="383.288" cy="99.524" r="1.152"/>
      <circle class="cls-12" cx="385.801" cy="98.372" r="1.152"/>
      <circle class="cls-12" cx="385.801" cy="95.544" r="1.152"/>
      <circle class="cls-12" cx="383.288" cy="94.287" r="1.152"/>
      <circle class="cls-12" cx="381.507" cy="95.439" r=".733"/>
    </g>
    <path class="cls-14" d="M312.461,67.375c7.128-.187,17.446,.309,27.763,.562,3.945,.098,7.817,1.092,11.628,2.534,2.842,1.074,4.605,3.351,5.457,7.214,1.757,7.966,2.076,16.078,1.613,24.289-.237,4.211-.747,8.354-1.718,12.397-.798,3.321-2.332,5.412-4.815,6.478-4.513,1.937-9.144,2.846-13.844,2.921-16.325,.258-32.647,.392-48.972,.572-2.303,.025-2.305,.01-1.905,2.999,.078,.585,.216,1.22-.165,1.663-.471,.548-.951,.118-1.385-.184-.641-.445-1.085-1.211-1.322-2.073-.581-2.124-1.723-2.5-3.259-2.478-6.183,.087-12.385,.66-18.525-.899-.368-.095-.734-.212-1.106-.262-6.212-.867-9.327-5.502-10.512-13.821-1.588-11.152-1.28-21.926,1.267-32.692,.774-3.269,2.319-5.259,4.647-6.41,3.499-1.729,7.149-2.299,10.818-2.861,4.57-.699,9.118,.139,13.676,.089,1.359-.014,2.28-.48,2.825-2.185,.171-.536,.431-1.033,.702-1.492,.525-.887,1.202-1.799,2.052-1.166,.748,.559,.334,1.69,.094,2.519-.54,1.86-.021,2.327,1.334,2.315,6.82-.06,13.638-.027,23.651-.027Zm-39.309,28.487c-.042,6.988,.979,13.7,3.245,20.194,.874,2.508,2.077,3.29,4.208,2.904,4.954-.903,9.921-1.683,14.88-2.533,2.566-.44,3.156-1.301,2.81-4.405-.695-6.197-.801-12.421-.773-18.657,.023-4.556,.313-9.082,.765-13.6,.191-1.91,.309-3.99-1.815-4.372-5.581-1.004-11.183-1.835-16.776-2.745-1.707-.28-2.534,.775-3.175,2.541-2.401,6.606-3.422,13.51-3.37,20.673Zm78.209,.077c.168-4.464-.221-8.879-.614-13.303-.161-1.815-.733-2.447-1.754-2.439-2.16,.015-4.32,.036-6.479-.009-1.131-.023-1.588,.812-1.498,2.63,.112,2.266,.234,4.536,.261,6.806,.078,6.318,.124,12.64-.26,18.943-.121,2.007,.317,2.982,1.629,2.922,2.107-.092,4.216-.056,6.324-.015,1.052,.023,1.602-.686,1.758-2.443,.384-4.337,.817-8.66,.631-13.093Zm-23.757-22.005v-.036c1.526,0,3.05,0,4.575,.001,.505,0,.889-.632,.932-1.575,.059-1.297-.543-.974-.867-1.021-.935-.144-1.877-.097-2.814-.163-2.149-.146-4.297-.284-6.443-.485-.813-.078-.965,.622-.668,2.115,.21,1.055,.609,1.171,1.062,1.169,1.408-.012,2.815-.006,4.223-.006Zm-35.993-3.759c.003,.222,.007,.445,.01,.668,.818,.184,1.634,.407,2.458,.548,6.418,1.098,12.856,1.988,19.338,2.349,.656,.037,1.557,.654,1.884-.289,.271-.779-.527-1.464-.936-2.127-.468-.757-1.208-.78-1.911-.868-4.153-.508-8.318-.163-12.476-.269-2.789-.071-5.579-.012-8.368-.012Zm23.858,47.567c-8.232,.229-16.086,1.437-23.87,3.366,6.795,.684,13.547-.144,20.308,.029,1.876,.048,2.872-.927,3.562-3.395Zm12.001,.048v-.044c-1.319,0-2.637,.007-3.954-.004-.64-.006-.874,1.092-.893,2.299-.026,1.564,.548,.962,.859,.952,1.074-.038,2.146-.271,3.219-.357,1.663-.136,3.331,.016,4.985-.522,.24-.076,.624,.338,.658-.699,.02-.611-.19-1.136-.42-1.327-.255-.212-.539-.278-.812-.284-1.214-.028-2.427-.012-3.641-.012Zm-72.119-7.191c1.544,7.753,4.181,9.803,11.49,8.576-2.596-5.175-7.388-6.217-11.49-8.576Zm.142-29.807c4.28-2.13,8.738-3.438,11.319-8.347-6.588-1.546-10.42,1.208-11.319,8.347Z"/>
    <g>
      <path class="cls-15" d="M341.914,67.244c1.084,.775,1.787,2.023,1.787,3.431,0,2.352-1.962,4.258-4.382,4.258s-4.382-1.906-4.382-4.258c0-1.408,.703-2.656,1.787-3.431"/>
      <circle class="cls-12" cx="338.062" cy="68.639" r=".733"/>
      <circle class="cls-12" cx="339.319" cy="70.524" r="1.152"/>
      <circle class="cls-12" cx="336.7" cy="70.524" r="1.152"/>
      <circle class="cls-12" cx="337.852" cy="73.038" r="1.152"/>
      <circle class="cls-12" cx="340.68" cy="73.038" r="1.152"/>
      <circle class="cls-12" cx="341.937" cy="70.524" r="1.152"/>
      <circle class="cls-12" cx="340.785" cy="68.744" r=".733"/>
    </g>
  </g>
</svg>